<?xml version="1.0" standalone="no"?>
<!DOCTYPE svg PUBLIC "-//W3C//DTD SVG 1.1//EN" "http://www.w3.org/Graphics/SVG/1.1/DTD/svg11.dtd" >
<svg xmlns="http://www.w3.org/2000/svg" xmlns:xlink="http://www.w3.org/1999/xlink" version="1.1">
<metadata></metadata>
<defs>
<font id="utm_essendine_capsbold" horiz-adv-x="1734" >
<font-face units-per-em="2048" ascent="1638" descent="-410" />
<missing-glyph horiz-adv-x="737" />
<glyph unicode=" "  horiz-adv-x="737" />
<glyph unicode="&#x09;" horiz-adv-x="737" />
<glyph unicode="&#xa0;" horiz-adv-x="737" />
<glyph unicode="!" horiz-adv-x="505" d="M389 1577v0q-10 -27 -14 -92l-58 -1118q-2 -58 -127 -80q21 57 17 149l-31 955q-4 120 -27 143q88 6 240 43zM373 111q0 -50 -35 -84.5t-84 -34.5q-47 0 -82 34.5t-35 84.5q0 49 34 82.5t83 33.5t84 -33.5t35 -82.5z" />
<glyph unicode="&#x22;" horiz-adv-x="495" d="M475 1522q2 -103 -57 -197q-54 -86 -80 -70q18 19 41 72q26 64 20 98q-41 -16 -86 -2q-47 15 -69 64q-11 -92 -62 -169t-74 -63q19 19 39 72q27 64 21 98q-39 -16 -84 -2q-82 27 -82 113q0 35 23 68q36 53 96 53q90 0 117 -86q32 86 114 86q56 0 89.5 -39t33.5 -96z" />
<glyph unicode="#" horiz-adv-x="2656" d="M2732 934q0 -248 -178 -425t-428 -177v0q-250 0 -428 177t-178 425q0 250 178 426t428 176t428 -176t178 -426zM2222 94q0 -39 -28.5 -67.5t-67.5 -28.5q-41 0 -69.5 28.5t-28.5 67.5q0 41 28.5 70t69.5 29q39 0 67.5 -29t28.5 -70zM1593 1542q-149 -31 -153 -244 q-19 -860 -8 -1386q-566 663 -1145 1243v0q-8 -297 4 -903q0 -98 41 -166q41 -74 114 -88h-2q-32 4 -198 4q-183 2 -236 -4h-10q150 33 154 246q14 626 -2 1384q229 -258 571 -620q293 -310 584 -617q6 432 -2 897q-2 98 -43 169t-115 85q0 2 4 2q33 -4 199 -4q180 -2 233 4 q10 0 10 -2zM2542 934q0 215 -122 367.5t-294 152.5t-294 -152.5t-122 -367.5t122 -366.5t294 -151.5v0q172 0 294 151.5t122 366.5z" />
<glyph unicode="$" horiz-adv-x="1060" d="M639 0l-2 -111q0 -57 -6 -82q-8 -45 -37 -67l-47 -33q33 72 31 180l-5 101q-51 -6 -108 -4q-158 6 -297 59q-111 41 -129.5 139.5t-38.5 386.5v0q0 29 6 31q-2 -113 63.5 -226.5t166.5 -185.5q147 -102 335 -94l-16 598q-127 43 -180 68q-99 43 -162 92 q-137 109 -137 291q0 108 55 198q117 187 399 213l-2 27q-4 139 54 213l116 117q-10 -60 -28 -164l-2 -193q204 -10 391 -57q-2 -172 -6 -385q-2 -4 -2 -6q-4 143 -127 246q-111 90 -258 108l-11 -590q109 -36 164 -59q266 -111 266 -332q0 -170 -141 -311 q-129 -127 -305 -168zM549 907v0l-17 551q-200 -31 -262 -178q-18 -43 -18 -86q0 -109 86 -180q65 -53 211 -107zM905 399q0 158 -254 256l-10 -553q117 21 190.5 101t73.5 196z" />
<glyph unicode="%" horiz-adv-x="1310" d="M731 1137q0 -172 -94 -285q-102 -119 -270 -119v0q-170 0 -271 119q-96 113 -96 285q0 174 100.5 289.5t266.5 115.5q165 0 268 -119q96 -112 96 -286zM1108 1554l-64 -110l-577 -1297q-35 -77 -68 -98l-104 -65q35 47 63 112l539 1202q43 97 90 140zM1405 403 q0 -174 -96 -286q-101 -119 -271 -119v0q-168 0 -270 119q-96 112 -96 286q0 170 100 287t266 117t266.5 -117t100.5 -287zM614 1137q0 157 -61 258q-70 106 -188 104q-121 0 -189 -106q-63 -99 -63 -256q0 -154 68.5 -258.5t183.5 -102.5v0q114 2 181.5 104.5t67.5 256.5z M1288 403q0 156 -65.5 259.5t-186.5 101.5q-118 -2 -188 -107q-62 -98 -62 -254q0 -155 68 -259.5t182 -102.5v0q117 2 184.5 104.5t67.5 257.5z" />
<glyph unicode="&#x26;" horiz-adv-x="1509" d="M1595 115q15 -29 -59 -78q-84 -55 -195 -57q-129 0 -198 22q-92 31 -201 129q-197 -137 -436 -137q-299 0 -449 231q-57 90 -57 211q0 146 80 273q90 139 252 215q-70 116 -86 198q-8 45 -8 86q0 158 114 252q107 88 260 88q88 0 168 -30q56 -23 90.5 -63t32.5 -60v0 q-110 100 -241 100q-117 0 -191 -82q-45 -51 -45 -135q0 -66 29 -133q45 -109 276 -424q217 -297 316 -397q122 131 122 309q0 155 -96 269t-250 114q-75 0 -155 -31q4 16 49 42t84 36q104 29 194 29q170 0 265 -99q88 -94 88 -243q0 -269 -242 -486q188 -203 348 -203 q80 0 139 56zM877 188q-299 347 -500 666q-174 -125 -174 -346q0 -90 37 -170q47 -102 166 -164q110 -59 237 -59q143 0 234 73z" />
<glyph unicode="'" horiz-adv-x="327" d="M248 1522q0 -99 -58 -193q-53 -86 -78 -67q17 18 39 69q25 62 21 99q-41 -17 -84 -5q-80 27 -80 111q0 37 20 68q35 51 95 51q57 0 90 -38t35 -95z" />
<glyph unicode="(" horiz-adv-x="393" d="M311 1700q-159 -270 -159 -922q0 -297 41 -549q43 -264 116 -393q-10 -2 -49 43q-139 164 -209 445q-53 219 -51 440q2 227 57 450q70 289 203 445q41 47 51 41z" />
<glyph unicode=")" horiz-adv-x="428" d="M311 764q2 -221 -51 -442q-70 -279 -211 -443q-33 -47 -49 -43q76 129 119 395q39 250 39 549q0 652 -158 920q10 6 51 -41q133 -156 203 -445q55 -223 57 -450z" />
<glyph unicode="*" horiz-adv-x="714" d="M764 1372l-57 -127q-15 -28 -41 -28l-201 30l141 -114q10 -11 23 -11h12l-2 -2l-102 -33q-21 -8 -35 7l-80 108l27 -260q0 -8 13 -21.5t9 -19.5h-2l-125 64q-27 12 -27 39l29 198l-117 -143q-8 -10 -8 -23v-12l-2 2l-33 104q-10 19 7 35l108 78l-260 -26 q-8 0 -21.5 -12.5t-19.5 -8.5v0l63 127q13 25 39 25l199 -29l-143 119q-8 8 -21 8h-14l102 37q23 8 37 -6l82 -115l-27 264q0 14 -11 26.5l-11 12.5v0l125 -57q29 -13 29 -41l-27 -205l115 145q6 9 6 22t2 13l37 -100q8 -23 -7 -39l-108 -82l258 27q14 0 26.5 11t12.5 13v0z " />
<glyph unicode="+" horiz-adv-x="552" d="M594 696h-244v-245h-106v245h-244v105h244v243h106v-243h244v-105z" />
<glyph unicode="," horiz-adv-x="374" d="M238 96q2 -98 -53.5 -187t-80.5 -73q17 19 39 70q25 63 21 98q-41 -16 -86 -2q-80 25 -80 109q0 36 23 67q34 51 94 51q55 0 89 -37.5t34 -95.5z" />
<glyph unicode="-" horiz-adv-x="903" d="M812 963l-55 -127q-8 -29 -37 -29h-598q-16 0 -27.5 -11.5l-11.5 -11.5v2l61 127q13 25 37 25h594q15 0 35 25h2z" />
<glyph unicode="&#x2010;" horiz-adv-x="903" d="M812 963l-55 -127q-8 -29 -37 -29h-598q-16 0 -27.5 -11.5l-11.5 -11.5v2l61 127q13 25 37 25h594q15 0 35 25h2z" />
<glyph unicode="." horiz-adv-x="366" d="M236 113q0 -47 -36 -81t-83 -34q-49 0 -83 34t-34 81q0 49 34 83.5t83 34.5q47 0 83 -34.5t36 -83.5z" />
<glyph unicode="/" horiz-adv-x="888" d="M844 1827q-58 -109 -80 -146l-621 -1753q-39 -110 -90 -127l-53 -16q55 57 86 162l492 1622q40 133 116 184z" />
<glyph unicode="0" horiz-adv-x="1564" d="M1454 793q0 -344 -190 -568q-201 -235 -537 -235t-537 235q-190 224 -190 568t195 567q202 235 532 235q332 0 535 -235q192 -225 192 -567zM1223 793q0 313 -125 510q-135 210 -375 208q-238 -2 -373 -211q-125 -196 -125 -507q0 -308 131 -508q140 -213 367 -211v0 q231 4 369 213q131 198 131 506z" />
<glyph unicode="1" horiz-adv-x="600" d="M532 0l-4 -2q-247 8 -522 0q-6 0 -6 2q162 31 168 219q14 408 0 1057q-2 90 -43 156.5t-115 80.5q0 3 2 3q76 2 201 20t152 31q-21 -717 2 -1348q6 -188 165 -219z" />
<glyph unicode="2" horiz-adv-x="1116" d="M1084 418q8 -6 -27 -120t-53 -157q-39 -90 -57 -112q-33 -39 -97 -39h-852q328 364 434 508q285 383 285 626q0 84 -35 152q-94 182 -309 182q-143 0 -252 -86q-115 -90 -117 -223q-18 4 -16 18q18 191 168 299q135 99 322 99q192 0 323 -103q146 -114 139 -301 q-4 -137 -94 -291q-72 -122 -233 -315q-168 -193 -336 -383q301 -6 414 4q172 14 256 57q108 58 137 185z" />
<glyph unicode="3" horiz-adv-x="1017" d="M956 367q-143 -392 -548 -392q-140 0 -267 48q-114 43 -131 83q-12 35 -10 41q154 -127 338 -127q145 0 258 86.5t150 243.5q12 62 12 121q0 180 -119 298t-311 118q-45 0 -94 -6l329 462h-362q-142 -14 -166 -126q-2 2 -2 8q28 172 43 327q53 -16 115 -16h657l-451 -584 q287 15 447 -125q137 -122 137 -311q0 -76 -25 -149z" />
<glyph unicode="4" horiz-adv-x="1310" d="M1294 670q0 -45 -125 -115t-192 -70l-86 -2q0 -20 8 -256q6 -194 172 -227q0 -2 -6 -2q-256 8 -541 0q-4 0 -6 2q168 31 174 227q4 76 8 258l-700 -2q657 815 899 1159q-14 -342 -10 -1034h219q29 0 88 19q68 20 98 43zM700 608v576l-479 -578z" />
<glyph unicode="5" horiz-adv-x="1028" d="M961 717q30 -72 30 -162q0 -172 -94 -311q-182 -269 -512 -269q-184 0 -342 95q-47 28 -43 63q133 -104 334 -104q182 0 300 107.5t142 291.5q4 33 4 64q0 190 -135 317t-327 127q-105 0 -207 -43l90 649h608q33 0 55 27q2 -2 -4 -17q-12 -34 -41 -104q-45 -96 -133 -96 h-399l-58 -353q86 17 170 17q193 0 340 -78q156 -78 222 -221z" />
<glyph unicode="6" horiz-adv-x="1216" d="M1096 707q29 -89 29 -183q0 -176 -93 -317q-96 -150 -256 -203q-100 -35 -198 -35q-205 0 -363.5 132t-204.5 341q-20 90 -20 193q0 311 164 592q153 262 385 354q125 51 199 51q20 0 20 -8q-258 -68 -406 -295q-135 -205 -149 -483q158 180 422 180q160 0 283 -78 q135 -86 188 -241zM918 594q-33 149 -130.5 243.5t-217.5 94.5q-41 0 -82 -12q-117 -35 -189.5 -154t-72.5 -268q0 -56 10 -111q33 -149 130 -243.5t216 -94.5q43 0 84 12v0q117 35 189.5 154t72.5 266q0 58 -10 113z" />
<glyph unicode="7" horiz-adv-x="1056" d="M1022 1542l-551 -1329q-65 -160 -188 -254q-99 -78 -226 -78q-39 0 -36 8q120 0 221 101q88 88 131 215l393 1141h-520q-98 0 -139 -13q-70 -18 -107 -84q-2 2 -2 8q0 11 33 107q35 109 49 192q16 -14 139 -14h803z" />
<glyph unicode="8" horiz-adv-x="1202" d="M1178 442q-9 -194 -176.5 -337.5t-401.5 -143.5q-266 0 -433 123t-167 309q0 283 371 438q-273 127 -273 345q0 163 162 292q131 105 334 105q180 0 313 -84q146 -92 156 -242q18 -237 -264 -379q393 -163 379 -426zM702 909q177 88 177 277q0 121 -78 209 q-86 94 -219 94q-131 0 -213 -74t-82 -174q0 -88 63 -160q70 -80 205 -120q0 -3 147 -52zM797 655q-58 35 -318 125v0q-270 -116 -264 -395q2 -149 119 -248q104 -88 252 -96q164 -10 276 94q107 98 107 238q0 174 -172 282z" />
<glyph unicode="9" horiz-adv-x="1226" d="M1139 850q-4 -369 -178 -617q-193 -276 -543 -321q-25 -4 -53 -4q-72 0 -132.5 16.5t-56.5 36.5q82 -27 160 -27q260 0 440 250q170 238 158 523q-172 -191 -442 -191q-158 0 -281 78q-133 84 -186 240q-29 90 -29 184q0 174 92 315q96 150 258 203q109 39 211 39 q264 0 430 -227q156 -209 152 -498zM885 1153q-31 152 -129 246t-217 94q-41 0 -82 -12v0q-119 -37 -190.5 -155t-71.5 -267q0 -55 10 -111q31 -151 129 -245.5t219 -94.5q41 0 82 13q117 34 189.5 153t72.5 268q0 56 -12 111z" />
<glyph unicode=":" horiz-adv-x="366" d="M236 422q0 -47 -36 -81t-85 -34v0q-47 0 -81 34t-34 81q0 49 34 84t81 35q49 0 85 -35t36 -84zM236 115q0 -47 -36 -81t-85 -34v0q-47 0 -81 34t-34 81q0 49 34 83.5t81 34.5q49 0 85 -34.5t36 -83.5z" />
<glyph unicode=";" horiz-adv-x="376" d="M244 426q0 -49 -37 -85t-86 -36t-85 36t-36 85q0 51 36 87t85 36t86 -37t37 -86zM244 96q0 -98 -55.5 -187t-79.5 -73q16 19 38 70q25 63 21 98q-41 -16 -84 -2q-80 25 -80 109q0 36 21 67q34 51 94 51q57 0 90 -37.5t35 -95.5z" />
<glyph unicode="&#x3c;" horiz-adv-x="952" d="M1020 229q-152 103 -246 148l-774 377l793 387q84 41 118 61q64 35 109 76l-57 -154q-43 -90 -170 -137l-611 -233l611 -232q127 -47 170 -137z" />
<glyph unicode="=" horiz-adv-x="739" d="M729 1038l-55 -127q-8 -28 -37 -28h-598q-16 0 -27.5 -11.5l-11.5 -11.5v2l61 127q13 25 37 25h594q15 0 35 24h2zM729 827l-55 -127q-10 -28 -37 -28h-598q-16 0 -27.5 -11.5l-11.5 -11.5v2l61 127q13 27 37 27h594q15 0 35 22h2z" />
<glyph unicode="&#x3e;" horiz-adv-x="954" d="M1022 754l-778 -377q-99 -47 -244 -148l57 156q45 90 170 137l611 232l-611 233q-125 47 -170 137l-57 154q74 -47 233 -139z" />
<glyph unicode="?" horiz-adv-x="1179" d="M1065 1192q-2 -178 -137 -299q-113 -100 -301 -148v0l2 -313q0 -37 -41 -64.5t-168 -80.5q14 45 14 149v318q193 20 301 149q96 115 96 258q0 78 -30 139q-94 181 -297 181q-135 0 -238 -84q-108 -88 -108 -221q-29 8 -27 22q18 188 164 295q131 96 311 96 q189 0 318 -100q143 -113 141 -297zM635 111q0 -50 -35 -84.5t-84 -34.5t-83 34.5t-34 84.5q0 49 34 83.5t83 34.5t84 -34.5t35 -83.5z" />
<glyph unicode="@" horiz-adv-x="1327" d="M1343 1159q15 -61 15 -139q0 -242 -113 -457q-123 -237 -301 -239q-61 0 -99 33.5t-32 88.5q-43 -49 -123 -81q-86 -35 -180 -33q-113 2 -176 61q-58 53 -58 135q0 86 62 160q68 82 180 113q103 18 309 67q105 31 111 136q6 116 -141 116q-31 0 -66 -6q-41 -8 -119 -55 q-69 -43 -110 -43q-17 0 -31 6q-22 6 -35 37q-4 4 2 8q107 76 252 100q60 11 113 11q115 0 185.5 -46.5t70.5 -130.5q0 -22 -6 -49l-90 -387q-19 -82 -19 -127q0 -55 27 -61q80 -15 155 139q109 215 109 455q0 198 -90 336q-107 161 -297 161q-217 0 -419 -203.5 t-267 -490.5q-25 -102 -25 -201q0 -215 106.5 -353t280.5 -138q252 0 447 201v0l55 -58q-244 -225 -520 -225q-225 0 -365.5 162t-140.5 411q0 99 23 201q75 322 322 547t521 227q183 2 307.5 -103.5t169.5 -285.5zM901 825q-45 -18 -270 -65q-99 -21 -156 -82 q-49 -53 -57 -117q-8 -65 35 -110t120 -45q33 0 70 8q74 18 135.5 79.5t73.5 116.5z" />
<glyph unicode="A" d="M1671 2q0 -4 -20 -2q-195 6 -439 0q-12 0 -10 2q70 23 70 107q0 51 -27 120l-139 344h-584l-116 -299q-44 -108 -44 -174q0 -84 64 -100h-4q-227 4 -420 0q-2 0 -2 2q143 29 246 250q162 350 577 1362q234 -518 658 -1409q88 -172 190 -203zM1063 672l-262 596l-242 -596 h504z" />
<glyph unicode="B" horiz-adv-x="1257" d="M1192 440q-4 -184 -160 -313q-143 -119 -323 -129q-127 -6 -353 -2q-245 6 -350 2q-6 0 -6 2q158 31 164 223q16 451 0 1112q-4 176 -154 207v2q416 -4 584 0v0q182 6 311 -63q158 -84 162 -254q4 -125 -89 -237.5t-220 -143.5q182 -23 310 -139.5t124 -266.5zM866 1178 q-22 313 -383 297q-61 -5 -80 -11q-47 -12 -47 -57l-4 -510q0 -10 19 -14q61 -19 131 -19q153 0 258 78q117 88 106 236zM971 436q0 133 -80 226q-96 108 -283 122q-116 9 -241 -16q-15 -2 -15 -14l4 -555q0 -82 77 -104.5t155 -22.5q162 0 268 90q119 98 115 274z" />
<glyph unicode="C" horiz-adv-x="1503" d="M215 778q8 -225 117 -407q121 -199 317 -250q88 -23 187 -23q188 0 352 80q174 86 258 238q12 -4 -32 -146.5t-68 -158.5q-84 -54 -226 -88q-153 -39 -299 -39q-104 0 -188 20q-311 76 -483 299q-154 201 -154 457q0 338 242 567q235 225 577 238q240 8 580 -76 q0 -127 -2 -318q0 -18 -6 -45q-5 113 -174 228q-179 121 -373 123q-307 4 -479 -215q-154 -195 -146 -484zM1393 1171z" />
<glyph unicode="D" horiz-adv-x="1533" d="M1518 795q0 -326 -266 -570q-256 -235 -565 -227q-70 2 -687 2q-10 0 -10 2q156 29 164 221q21 572 0 1129q-6 159 -154 190q0 2 3 2q-23 -2 327 -2q441 0 420 2q328 -18 545 -225q223 -213 223 -524zM1151 291q158 196 158 465q0 207 -98 386t-268 263q-125 61 -287 61 q-115 0 -238 -30q-69 -19 -71 -45q-9 -963 -7 -1153v0q2 -70 56 -97q119 -63 268 -63q143 0 275.5 57.5t211.5 155.5z" />
<glyph unicode="E" horiz-adv-x="1327" d="M1270 436q8 -6 -27 -121.5t-53 -158.5q-39 -90 -59 -115q-33 -41 -97 -41h-1034q-6 0 -6 2q158 31 164 221q16 426 2 1112q-4 176 -156 207v2h930q162 0 190 4q-16 -129 -6 -346q0 -2 -2 -4q-2 107 -112 180q-97 64 -199 66q-248 4 -426 -2q-29 -2 -29 -19l-4 -549h498 q129 0 190 44q-16 -115 -6 -320q2 -6 -2 -6q-4 90 -82 139q-59 37 -137 39q-274 4 -463 0l4 -547q0 -117 103 -123q252 -16 403 15q363 73 416 321z" />
<glyph unicode="F" horiz-adv-x="1200" d="M1124 1548q-16 -157 -6 -346q0 -2 -2 -4q-2 107 -112 180q-97 64 -199 66q-248 4 -426 -2q-29 -2 -29 -19l-4 -604h490q135 2 196 53q-14 -114 -4 -329q0 -4 -2 -6q-4 90 -82 139q-59 39 -137 39q-283 4 -463 0l4 -492q2 -98 60 -162q47 -49 104 -59q0 -2 -14 -2h-498 q-6 0 -6 2q158 31 164 221q16 426 2 1112q-4 176 -156 207v2h930q162 0 190 4z" />
<glyph unicode="G" horiz-adv-x="1615" d="M1591 778q-69 -14 -94 -73q-16 -43 -20 -150q0 -149 2 -422q-82 -65 -252 -110q-180 -50 -363 -50q-125 0 -229 25q-311 74 -483 299q-156 201 -156 461q0 338 239.5 569.5t585.5 235.5q295 4 600 -78q-12 -340 -12 -336h-2q-45 151 -242 244q-163 75 -319 75 q-307 -4 -483 -213q-156 -186 -156 -462q0 -289 166 -496q184 -227 489 -227q224 0 426 110v375q0 203 -121 223q0 2 17 2q203 -6 401 0q4 0 6 -2z" />
<glyph unicode="H" horiz-adv-x="1558" d="M1561 0q-2 0 -7 -2q-258 8 -512 0q-4 0 -6 2q158 31 166 223q8 266 8 535h-860q0 -269 8 -535q9 -190 166 -223q-2 -2 -6 -2q-117 4 -512 0q-6 0 -6 2q158 31 164 223q16 443 2 1112q-4 176 -156 207v2q127 -6 252 -6t250 6q2 2 2 -2q-154 -31 -156 -207l-8 -473h860 q0 31 -8 473q-4 176 -155 207q0 2 2 2q125 -6 249 -6q125 0 250 6q2 0 2 -2q-151 -31 -155 -207q-15 -686 2 -1112q6 -190 164 -223z" />
<glyph unicode="I" horiz-adv-x="569" d="M522 -2q0 -2 -4 -2q-258 8 -512 0q-6 0 -6 2q158 29 164 223q16 449 0 1110q-4 178 -154 209v0q127 -4 252 -4t250 4q2 2 2 0q-152 -31 -156 -209q-14 -684 0 -1110q9 -192 164 -223z" />
<glyph unicode="J" horiz-adv-x="804" d="M752 1542q-152 -31 -156 -207q0 -403 -6 -1116q-4 -266 -145.5 -439t-364.5 -173q-62 0 -72 13t-8 28q57 -19 107 -19q243 0 280 514q14 199 17 594q2 373 -9 598q-8 178 -151 207q0 4 2 2q125 -6 252 -6t252 6q2 0 2 -2z" />
<glyph unicode="K" horiz-adv-x="1538" d="M1593 -70l-2 -2q-45 -18 -104 -18q-113 0 -256 67q-117 56 -191 119q-239 215 -690 625q2 -291 8 -498q9 -190 166 -223q-2 -2 -6 -2q-258 8 -512 0q-6 0 -6 2q158 31 164 223q16 426 2 1112q-4 176 -156 207q0 4 0 2q127 -6 252 -6t250 6q2 0 2 -2q-154 -31 -156 -207 l-8 -536l443 487q125 137 125 213q0 31 -27 43q0 2 8 2q45 -2 361 0l2 -2q-45 -6 -80 -29q-62 -40 -166 -151l-496 -539q434 -413 791 -731q90 -80 125 -102q77 -51 157 -60z" />
<glyph unicode="L" horiz-adv-x="1288" d="M1270 436q8 -6 -27 -121.5t-53 -158.5q-39 -90 -59 -115q-33 -41 -97 -41h-1034q-6 0 -6 2q74 10 119 70.5t47 150.5q16 449 0 1112q-4 176 -154 207v2q125 -6 252 -6q125 0 250 6q2 0 2 -2q-151 -31 -156 -207q-12 -614 0 -1112q5 -117 103 -123q248 -16 397 15 q363 73 416 321z" />
<glyph unicode="M" horiz-adv-x="1878" d="M1903 2q0 -4 -5 -4q-49 4 -276 4t-250 -4q-2 -2 -4 4q74 12 117 84q39 66 39 162q0 313 -25 823q-299 -555 -579 -1108q-189 363 -594 1106q0 -33 -15 -426q-10 -258 -6 -424q6 -196 146 -217q-2 -4 -9 -2q-284 10 -438 -2q-4 -2 -4 2q78 12 123 84q39 61 45 143 q53 668 70 1405q254 -481 352 -661q194 -363 366 -660q330 568 705 1311q22 -799 72 -1393q18 -196 170 -227z" />
<glyph unicode="N" horiz-adv-x="1589" d="M1593 1542q-71 -14 -111 -81.5t-42 -162.5q-19 -895 -8 -1386q-566 663 -1145 1243q-8 -297 4 -903q0 -98 41 -166q41 -74 114 -88h-2q-30 4 -198 4q-183 2 -236 -4h-10q150 33 154 246q14 626 -2 1386q231 -260 571 -622q293 -310 584 -617q6 432 -2 899 q-2 99 -43 169.5t-115 82.5q0 2 4 2q31 -4 199 -4q180 -2 233 4q10 0 10 -2z" />
<glyph unicode="O" horiz-adv-x="1681" d="M1575 772q0 -328 -231.5 -562.5t-557.5 -234.5v0q-325 0 -555.5 233.5t-230.5 563.5t230.5 563.5t555.5 233.5q326 0 557.5 -233.5t231.5 -563.5zM1354 842q-33 270 -204 453.5t-396 183.5q-250 0 -406 -222q-137 -194 -137 -456q0 -277 166 -496q180 -237 448 -237 q250 0 402 206q135 185 135 445q0 61 -8 123z" />
<glyph unicode="P" horiz-adv-x="1261" d="M506 522q-82 0 -166 17v-316q4 -88 51 -147.5t123 -73.5q0 -4 -6 -4q-256 8 -512 0q-4 0 -4 2q158 31 164 223q14 426 0 1112q-2 176 -156 207l2 2q391 -6 592 2q287 15 447 -125q141 -123 141 -321q0 -250 -217 -420q-201 -158 -459 -158zM971 1071q-8 189 -131 303 q-117 107 -295 107q-84 0 -168 -27q-37 -10 -37 -53v-731q0 -31 25 -39q71 -23 147 -23q191 0 324 127q143 135 135 336z" />
<glyph unicode="Q" horiz-adv-x="1608" d="M2374 -135q2 -2 0 -4q-72 -72 -220 -119q-153 -51 -315 -51q-188 0 -321 69q-162 80 -490 248q-98 -35 -233 -35q-328 0 -561.5 234.5t-233.5 564.5q0 328 233.5 561.5t561.5 233.5q327 0 559.5 -233.5t232.5 -561.5q0 -209 -102 -391q-99 -174 -266 -283 q284 -139 491 -229q186 -82 369 -82q194 0 295 78zM1370 840q-37 274 -209 458.5t-399 184.5q-254 0 -412 -221q-141 -199 -141 -463q0 -279 170 -500q182 -238 455 -238q251 0 405 207q139 187 139 449q0 61 -8 123z" />
<glyph unicode="R" horiz-adv-x="1433" d="M1462 -12q0 -2 -4 -4q-78 -21 -137 -21q-121 0 -246 57q-102 48 -174 117l-555 529v-445q0 -86 48 -146.5t126 -74.5q-2 -2 -6 -2q-244 8 -512 -2q-6 0 -6 4q158 29 164 221q16 428 2 1112q-4 178 -156 209v2q393 -6 572 0q274 8 411 -117q125 -112 109 -307 q-12 -162 -156.5 -295t-347.5 -163l520 -490q119 -111 228 -160q63 -26 120 -24zM893 1122q-6 166 -106 262q-97 91 -248 91q-78 0 -160 -25q-33 -10 -33 -49v-680q43 -6 86 -6q195 0 326 106q143 115 135 301z" />
<glyph unicode="S" horiz-adv-x="1161" d="M473 -16q-158 6 -313 63q-111 41 -129 141q-13 68 -31 392q-2 28 8 30q-4 -110 64 -229q63 -111 166 -182q141 -99 323 -99q137 0 230 64q104 69 120 203q2 18 2 34q0 121 -127 197q-61 39 -280 119q-197 71 -285 141q-139 109 -139 293q0 109 57 199q64 100 201 159 q127 54 272 56q222 2 463 -60q-6 -174 -14 -387q0 -6 -2 -6q-2 160 -152 266q-133 95 -291 95q-108 0 -200 -46q-101 -51 -139 -141q-17 -41 -17 -86q0 -108 86 -180q72 -59 223 -115q129 -45 258 -92q267 -113 267 -332q0 -217 -205 -366q-191 -138 -416 -131z" />
<glyph unicode="T" horiz-adv-x="1458" d="M1456 1587q-26 -61 -80 -368q-2 -13 -6 -11q8 238 -274 238h-285q-18 -746 -2 -1223q6 -190 168 -223q0 -2 -6 -2q-236 8 -512 0q-4 0 -6 2q155 29 161 223q21 629 5 1223h-320q-211 0 -297 -236q-4 7 -2 19q31 151 66 358q34 -45 194 -45h975q172 0 221 45z" />
<glyph unicode="U" horiz-adv-x="1548" d="M1548 2q0 -4 -4 -4q-65 6 -344 0q2 14 6 201q-176 -219 -475 -219q-242 2 -405 151q-172 160 -175 414q3 272 0 788q-4 180 -147 209v2q127 -6 246 -6t246 6v-2q-152 -31 -156 -209v-745q0 -279 178 -424q164 -133 369 -72q219 66 323 320q8 493 0 921q-2 176 -166 209 q0 2 2 2q246 -12 492 0q2 0 2 -2q-141 -29 -145 -209q-15 -684 0 -1112q8 -192 153 -219z" />
<glyph unicode="V" horiz-adv-x="1763" d="M1782 1542q-140 -24 -228 -205q-415 -843 -663 -1411q-238 549 -664 1411q-88 181 -227 205v2q264 -12 516 0l2 -2q-86 -18 -86 -96q0 -45 29 -109l467 -1036q172 389 461 1036q28 64 28 109q0 78 -86 96l2 2q219 -10 447 0q2 0 2 -2z" />
<glyph unicode="W" horiz-adv-x="2422" d="M2484 1542q-137 -24 -225 -203q-424 -864 -660 -1402q-112 262 -356 776q-252 -535 -356 -776q-242 552 -660 1402q-88 179 -227 203v2q262 -12 512 0q2 0 2 -2q-84 -18 -84 -94q0 -45 29 -109q149 -340 463 -1030q116 246 249 555q-120 250 -231 475q-88 179 -225 203 q-2 2 0 2q262 -12 512 0q2 0 2 -2q-86 -18 -86 -96q0 -45 55 -172q39 -84 78 -170l104 235q29 62 29 107q0 78 -86 96l2 2q217 -10 444 0q3 0 3 -2q-140 -24 -228 -203q-55 -112 -194 -401q166 -371 286 -629q170 385 457 1030q29 64 29 107q0 78 -84 96q0 2 2 2 q119 -6 219 -6t225 6v-2z" />
<glyph unicode="X" horiz-adv-x="1507" d="M324 332q190 246 309 420q-205 327 -385 583q-71 103 -112 142q-60 53 -136 65q-2 2 0 2q256 -10 494 0q2 0 2 -2q-51 -24 -51 -90q0 -43 26 -88q95 -156 273 -451q100 140 289 422q43 74 43 138q0 55 -43 69q0 2 2 2q207 -10 426 0v-2q-78 -12 -136 -67 q-34 -33 -112 -140q-135 -178 -395 -538q90 -146 393 -586q71 -102 117 -143q61 -56 137 -70q2 -2 0 -2q-129 6 -250 6q-123 0 -244 -6q-2 0 -2 2q45 25 45 88q0 49 -26 98q-99 158 -281 451q-102 -146 -295 -434q-37 -56 -37 -111q0 -67 53 -92q0 -2 -2 -2q-120 6 -217 6 q-98 0 -227 -6v2q88 27 188 139q13 15 154 195z" />
<glyph unicode="Y" horiz-adv-x="1626" d="M1632 1542q-96 -24 -229 -207l-496 -673q0 -218 8 -439q7 -192 164 -221q0 -2 -6 -4q-256 8 -512 0q-4 0 -4 2q158 31 164 223q6 185 8 436l-498 676q-133 183 -231 207v2q262 -12 512 0q2 0 4 -2q-84 -18 -84 -96q0 -49 37 -111l401 -534l385 534q43 58 43 109 q0 80 -90 98q0 2 2 2q205 -10 422 0q2 0 0 -2z" />
<glyph unicode="Z" horiz-adv-x="1343" d="M1329 449q8 -7 -29 -127q-32 -111 -51 -156q-39 -90 -63 -119q-37 -47 -99 -47h-1087q219 338 862 1440q-436 0 -340 2q-215 -4 -284 -37q-160 -76 -162 -207q-2 0 -4 4q12 184 -4 346q28 -4 188 -4h901q-192 -303 -434 -725q-203 -354 -404 -706q164 -9 361 0 q176 6 225 16q371 76 424 320z" />
<glyph unicode="[" horiz-adv-x="403" d="M346 -168q-2 -2 -6 -2q-348 14 -340 274q17 512 0 1354q-4 236 334 256q2 0 2 -2q-151 -37 -156 -254q-14 -835 2 -1354q7 -233 164 -272z" />
<glyph unicode="\" horiz-adv-x="888" d="M844 -215l-56 16q-49 15 -88 127l-622 1753q-25 48 -78 148l147 -76q76 -49 117 -184l494 -1622q30 -105 86 -162z" />
<glyph unicode="]" horiz-adv-x="380" d="M342 104q6 -260 -342 -274q-4 0 -4 2q158 39 164 272q14 519 0 1354q-2 217 -156 254l2 2q340 -20 336 -256q-16 -842 0 -1354z" />
<glyph unicode="^" horiz-adv-x="835" d="M897 729l-152 51q-63 35 -116 158l-180 418l-183 -418q-53 -123 -114 -158l-152 -51q39 62 121 215l328 610l321 -600q39 -73 127 -225z" />
<glyph unicode="_" horiz-adv-x="1507" d="M1857 -152q0 -2 -2 -2q-69 -32 -178 -32q-159 0 -341.5 65.5t-282.5 161.5q-222 207 -701 680q0 -242 8 -498q7 -190 164 -223q-2 -2 -6 -2q-256 8 -510 0q-6 0 -6 2q158 31 164 223q14 443 0 1112q-2 176 -154 207v2q125 -6 252 -6q125 0 250 6q0 2 2 -2 q-154 -31 -156 -207q-8 -477 -8 -536l443 487q125 137 125 213q0 31 -29 43q2 2 8 2q47 -2 360 0q3 0 3 -2q-46 -6 -80 -29q-62 -40 -164 -151l-498 -539l801 -794q190 -187 448 -187q43 0 88 6z" />
<glyph unicode="`" horiz-adv-x="1927" d="M1868 1542q-86 -20 -142 -141q-45 -96 -47 -180q-8 -535 4 -992q5 -194 168 -227q0 -4 -4 -4q-49 4 -276 4q-225 0 -248 -4q-4 -2 -6 4q74 12 117 84q41 66 41 162l2 878q-312 -622 -582 -1185q-188 376 -590 1183v-905q0 -196 146 -217q-2 -4 -9 -2q-284 10 -438 -2 q-4 -2 -4 2q152 23 168 227q18 224 18 981q0 92 -47 193q-55 123 -139 141q0 2 6 2q189 -10 336 0q322 -696 594 -1220q172 319 584 1220q106 -10 342 0q4 0 6 -2z" />
<glyph unicode="a" horiz-adv-x="1386" d="M1335 0q-2 -2 -14 0q-156 6 -350 0h-10q57 18 57 86q0 41 -23 96l-110 277h-467l-94 -238q-33 -88 -33 -141q0 -66 49 -80h-2q-182 4 -336 0h-2q115 25 197 201q129 280 462 1091q187 -415 525 -1128q71 -139 151 -164zM850 539l-211 475l-190 -475h401z" />
<glyph unicode="b" horiz-adv-x="1007" d="M954 352q-4 -147 -129 -252q-114 -94 -260 -102q-100 -4 -280 0q-197 4 -281 0q-4 0 -4 2q127 25 131 180q12 359 0 889q-2 141 -123 166v0q332 -4 467 0v0q146 6 248 -49q127 -68 131 -205q4 -100 -70.5 -189.5t-177.5 -113.5q146 -21 248 -113t100 -213zM692 942 q-16 250 -305 238q-49 -4 -63 -9q-39 -10 -39 -45l-2 -409q0 -6 14 -10q49 -15 104 -15q123 0 205 62q94 69 86 188zM778 348q-2 109 -65 180q-78 88 -226 99q-94 8 -194 -13q-10 -2 -10 -12l2 -444q0 -64 61.5 -82.5t122.5 -18.5q131 0 215 72q94 80 94 219z" />
<glyph unicode="c" horiz-adv-x="1202" d="M172 623q4 -181 92 -326q97 -160 254 -201q72 -18 150 -18q151 0 282 65q140 68 205 189q10 -2 -24.5 -117t-55.5 -127q-164 -102 -420 -102q-81 0 -151 18q-248 59 -385 238q-123 161 -123 366q0 269 190.5 451t464.5 192q191 6 463 -59q0 -102 -2 -254q2 -14 -4 -37 q-2 90 -141.5 184.5t-294.5 96.5q-248 2 -385 -172q-123 -156 -115 -387zM1112 938z" />
<glyph unicode="d" horiz-adv-x="1226" d="M1215 637q0 -262 -213 -457q-205 -188 -453 -182q-57 2 -549 2q-8 0 -8 2q125 23 131 176q17 459 0 903q-4 127 -123 154h2q-18 0 263 0q352 0 335 0q263 -14 439 -182t176 -416zM920 231q127 160 127 373q0 166 -79 309.5t-214 210.5q-100 50 -229 50q-90 0 -191 -25 q-55 -14 -55 -37q-8 -770 -6 -922v0q0 -55 43 -77q96 -50 215 -50q115 0 221 45.5t168 122.5z" />
<glyph unicode="e" horiz-adv-x="1060" d="M1016 350q6 -6 -20.5 -98t-43.5 -127q-30 -72 -47 -92q-26 -33 -75 -33h-830q-4 0 -4 2q127 23 131 176q12 342 2 889q-4 141 -125 166v2h744q129 0 153 4q-14 -104 -4 -276q-2 -2 -4 -5q0 86 -90 146q-76 49 -160 51q-196 4 -340 -2q-22 0 -22 -14l-4 -441h399 q104 0 151 35q-12 -90 -4 -254q2 -4 -2 -6q-2 72 -65 111q-47 30 -109 32q-221 2 -370 0l2 -438q0 -92 82 -98q202 -12 323 12q289 60 332 258z" />
<glyph unicode="f" horiz-adv-x="960" d="M901 1239q-14 -127 -4 -276q-2 -2 -4 -5q0 86 -90 146q-76 49 -160 51q-196 4 -340 -2q-22 0 -22 -14l-4 -484h393q106 2 157 43q-12 -92 -4 -264q0 -2 -2 -4q-2 72 -63 111q-49 30 -111 30q-227 4 -370 0l4 -391q0 -80 47 -131q37 -39 84 -47q-2 -2 -13 -2h-399 q-4 0 -4 2q127 25 131 178q12 340 2 889q-4 139 -125 164v2h744q129 0 153 4z" />
<glyph unicode="g" horiz-adv-x="1292" d="M1276 627q-55 -13 -74 -60q-14 -35 -18 -118q2 -121 2 -338q-66 -54 -201 -91q-143 -38 -291 -38q-100 0 -182 20q-250 59 -389 240q-123 159 -123 368q0 271 192.5 455t466.5 188q238 4 482 -63q-11 -270 -11 -268l-2 2q-36 118 -192 192q-131 64 -256 62 q-246 -2 -387 -170q-125 -150 -125 -371q0 -231 133 -395q150 -183 391 -183q180 0 342 88v302q0 161 -96 178q2 2 12 2q162 -6 322 0q4 0 4 -2z" />
<glyph unicode="h" horiz-adv-x="1251" d="M1247 0l-4 -2q-205 8 -409 0q-5 0 -5 2q127 25 132 180q8 211 8 426h-688q0 -215 6 -426q6 -155 133 -180q-2 -2 -6 -2q-92 4 -410 0q-4 0 -4 2q127 25 131 180q12 352 2 889q-4 141 -125 166v0q101 -4 201 -4t201 4q2 2 2 0q-123 -27 -125 -166l-6 -379h686q0 25 -6 379 q-3 141 -123 166v0q100 -4 200 -4q101 0 201 4h2q-123 -25 -125 -166q-10 -549 0 -889q6 -155 131 -180z" />
<glyph unicode="i" horiz-adv-x="454" d="M418 -2q0 -2 -4 -2q-205 8 -410 0q-4 0 -4 2q127 25 131 178q12 361 0 889q-2 141 -123 166v2q101 -4 201 -4t201 4q2 0 2 -2q-123 -25 -125 -166q-11 -547 0 -889q6 -153 131 -178z" />
<glyph unicode="j" horiz-adv-x="643" d="M602 1235q-123 -25 -125 -166q0 -324 -4 -893q-4 -225 -129 -365.5t-319 -121.5q-27 2 -25 28q45 -14 84 -14q197 0 226.5 412.5t4.5 953.5q-6 141 -120 166q2 2 2 0q100 -4 200 -4q103 0 203 4h2z" />
<glyph unicode="k" horiz-adv-x="1228" d="M1274 -53q0 -17 -84 -17q-90 0 -205 54q-94 43 -154 96q-192 172 -550 500q0 -234 6 -400q6 -153 131 -178q0 -2 -4 -2q-205 8 -410 0q-4 0 -4 2q125 25 131 178q12 342 2 889q-4 141 -125 168v0q101 -4 201 -4t201 4h2q-123 -27 -125 -168l-6 -428l354 389 q100 111 100 170q0 27 -22 37h6q37 -2 287 0h2q-35 -6 -64 -25q-49 -32 -131 -120l-397 -430q346 -332 633 -586q71 -66 100 -84q61 -41 125 -45z" />
<glyph unicode="l" horiz-adv-x="1030" d="M1016 350q6 -6 -20.5 -98t-43.5 -127q-30 -72 -47 -92q-26 -33 -75 -33h-830q-4 0 -4 2q127 16 133 176q12 361 0 889q-2 143 -123 168v0q101 -4 201 -4t201 4h2q-123 -27 -125 -168q-10 -489 0 -889q2 -92 82 -98q196 -12 317 12q289 60 332 258z" />
<glyph unicode="m" horiz-adv-x="1505" d="M1522 0q0 -2 -4 -2q-39 4 -220 4q-182 0 -200 -4q-2 0 -4 2q59 10 93 65.5t34 133.5q0 250 -23 657q-237 -442 -461 -885q-153 289 -477 883q0 -25 -10 -340q-8 -205 -4 -338q4 -158 114 -176q-2 -2 -6 0q-229 8 -350 -2q-4 0 -4 2q121 18 133 182q43 535 57 1125 q185 -351 576 -1059q264 454 561 1050q19 -639 59 -1114q15 -157 136 -184z" />
<glyph unicode="n" horiz-adv-x="1271" d="M1276 1235q-121 -25 -125 -197q-14 -716 -6 -1108q-453 531 -916 994q-6 -238 2 -723q5 -178 125 -203h-2q-24 2 -157 4q-146 2 -189 -4h-8q121 27 123 197q10 501 -2 1108q88 -97 923 -990q7 346 -2 719q-2 180 -124 203h2q24 -2 159 -4q146 0 189 4q8 2 8 0z" />
<glyph unicode="o" horiz-adv-x="1347" d="M1260 618q0 -262 -184.5 -449t-444.5 -187v0q-260 0 -445.5 187t-185.5 449q0 265 184.5 451t446.5 186q260 0 444.5 -186t184.5 -451zM1083 674q-26 217 -163.5 363.5t-315.5 146.5q-201 0 -323 -176q-111 -158 -111 -367q0 -219 133 -395q143 -193 359 -193 q198 0 319 166q109 150 109 356q0 50 -7 99z" />
<glyph unicode="p" horiz-adv-x="1009" d="M404 418q-64 0 -131 12v-252q6 -151 139 -178q0 -2 -4 -2q-207 8 -410 0q-4 0 -4 2q125 25 131 180q12 340 0 889q-2 141 -123 166v0q314 -4 473 2q230 10 357 -100q112 -99 112 -256q0 -201 -172 -338q-162 -125 -368 -125zM776 856q-6 152 -102 241t-238 89 q-65 0 -135 -23q-28 -8 -28 -43v-583q0 -25 18 -31q59 -21 119 -21q151 0 261.5 105.5t104.5 265.5z" />
<glyph unicode="q" horiz-adv-x="1284" d="M1900 -102q3 -2 0 -4q-57 -56 -178 -96t-250 -40q-149 0 -258 58q-127 61 -389 196q-78 -26 -188 -26q-262 0 -448.5 186t-186.5 451q0 262 186.5 449.5t448.5 187.5t448.5 -187.5t186.5 -449.5q0 -166 -80 -309.5t-215 -229.5q227 -111 393 -184q148 -64 295 -64 q156 0 235 62zM1098 678q-29 219 -167 366.5t-321 147.5q-202 0 -327 -178q-113 -158 -113 -369q0 -223 135 -399q146 -193 363 -193q202 0 325 166q111 150 111 361q0 49 -6 98z" />
<glyph unicode="r" horiz-adv-x="1146" d="M1169 -8l-2 -2q-63 -17 -110 -17q-191 0 -336 140l-444 422v-355q0 -69 38.5 -117.5t100.5 -60.5q0 -2 -4 -2q-195 6 -410 0q-4 0 -4 2q125 25 131 178q12 342 0 889q-2 143 -125 168h2q314 -4 457 0q219 8 330 -92q98 -90 86 -246q-11 -131 -125.5 -236.5t-278.5 -130.5 l416 -391q96 -90 182 -129q51 -22 96 -20zM715 899q-4 135 -84 209t-201 74q-61 0 -127 -19q-26 -8 -26 -39v-544q34 -7 69 -7q156 0 260 86q115 93 109 240z" />
<glyph unicode="s" horiz-adv-x="942" d="M383 -14q-127 4 -250 49q-90 35 -104 115q-11 53 -25 313q-2 20 6 22q-2 -88 50.5 -180t131.5 -147q115 -80 261 -80q110 0 184 51q82 55 96 162q14 108 -86 176q-51 37 -227 100q-168 60 -240 117q-110 86 -110 234q0 88 45 159q51 80 161 127q103 43 218 45 q178 2 370 -47q-4 -139 -12 -309v-6q-4 127 -123 213q-106 76 -231 76q-88 0 -162 -37q-80 -39 -111 -111q-14 -35 -14 -70q0 -88 70 -145q57 -47 178 -90q104 -37 207 -76q213 -88 213 -264q0 -174 -164 -293q-152 -110 -332 -104z" />
<glyph unicode="t" horiz-adv-x="1167" d="M1165 1272q-20 -51 -65 -297q0 -8 -4 -8q6 190 -219 190h-228q-16 -596 -2 -979q6 -151 135 -178h-4q-190 6 -409 0q-4 -2 -7 0q125 25 130 178q8 377 4 979h-256q-168 0 -238 -188q-2 6 -2 14q25 123 53 289q29 -37 156 -37h778q137 0 178 37z" />
<glyph unicode="u" horiz-adv-x="1239" d="M1241 4q-2 -2 -6 -2q-51 4 -275 0q2 10 7 160q-142 -176 -381 -174q-193 0 -324 121q-137 127 -139 329l-2 631q-2 143 -117 168h2q98 -4 195 -4q96 0 196 4v0q-121 -25 -125 -168v-596q0 -188 107 -305q98 -107 237 -107q109 0 199 68q100 70 156 203q6 395 0 737 q-4 141 -136 168h3q196 -8 393 0h2q-113 -23 -117 -168q-10 -547 2 -889q4 -153 123 -176z" />
<glyph unicode="v" horiz-adv-x="1413" d="M1425 1235q-112 -21 -182 -164q-332 -678 -530 -1130q-191 438 -531 1130q-71 143 -182 164v0q211 -8 414 0v0q-68 -16 -68 -78q0 -37 23 -86l372 -831q138 311 369 831q23 49 23 86q0 62 -68 78h2q96 -4 176 -4t182 4v0z" />
<glyph unicode="w" horiz-adv-x="1937" d="M1989 1235q-113 -21 -183 -164q-340 -692 -526 -1122q-90 211 -287 620q-200 -426 -284 -620q-193 442 -527 1122q-71 143 -182 164v0q211 -8 410 0h2q-68 -14 -68 -78q0 -35 23 -86q120 -272 370 -825q92 198 201 444q-96 201 -186 381q-70 143 -181 164h2q207 -8 408 0 h2q-68 -16 -68 -78q0 -37 43 -137q31 -68 64 -137l82 188q22 49 22 86q0 62 -67 78h2q174 -8 354 0h2q-112 -21 -182 -164q-43 -88 -156 -319q133 -299 230 -506q137 311 366 825q23 51 23 86q0 62 -68 78h2q94 -4 174 -4t181 4h2z" />
<glyph unicode="x" horiz-adv-x="1206" d="M260 266q152 197 248 336q-166 262 -309 467q-57 82 -90 113q-47 41 -109 53v0q205 -8 396 0h2q-41 -21 -41 -74q0 -35 22 -69q74 -125 215 -361q82 111 232 338q34 57 34 109q0 45 -34 57h2q166 -8 340 0q2 0 0 0q-60 -12 -107 -55q-28 -27 -90 -111 q-108 -143 -317 -432q71 -117 315 -469q104 -148 205 -166v0q-105 4 -203 4q-96 0 -194 -4h-3q37 21 37 70q0 37 -20 75q-80 125 -225 361q-82 -117 -236 -348q-29 -43 -29 -88q0 -52 43 -72q-2 -2 -2 0q-96 4 -174 4t-182 -4v0q70 20 152 111q14 16 122 155z" />
<glyph unicode="y" horiz-adv-x="1302" d="M1307 1235q-78 -23 -185 -166l-397 -541q2 -174 8 -348q4 -155 129 -180l-2 -2q-207 8 -409 0q-7 0 -7 2q127 25 134 180q4 146 6 346l-398 543q-106 143 -186 166v0q209 -8 410 0h4q-68 -16 -68 -78q0 -41 29 -88l321 -428l308 428q34 45 34 86q0 64 -71 80h2 q164 -6 336 0h2z" />
<glyph unicode="z" horiz-adv-x="1075" d="M1063 358q6 -6 -21.5 -98t-42.5 -127q-30 -72 -49 -96q-30 -37 -80 -37h-870q174 270 690 1153q-350 0 -272 0q-172 -2 -228 -29q-129 -61 -129 -166q-2 0 -4 5q11 147 -4 276q25 -4 152 -4h721q-154 -242 -348 -580q-162 -282 -322 -565q336 -14 469 12q295 62 338 256z " />
<glyph unicode="{" horiz-adv-x="538" d="M436 -158q-2 -4 -6 -4q-135 6 -197 62q-73 63 -69 213q4 116 8 231q2 135 -18 229q-17 86 -97 158q-22 23 -57 33q135 55 162 258q12 90 10 225q-4 109 -8 219q-2 138 72 199q61 49 190 57v-2q-121 -32 -123 -254v-268q-6 -166 -49 -266q-53 -123 -191 -170 q140 -37 195 -168q37 -90 43 -240q2 -121 2 -241q6 -238 133 -271z" />
<glyph unicode="|" horiz-adv-x="1646" d="M1636 1542q-72 -14 -112 -81.5t-42 -162.5q-18 -895 -8 -1386q-756 905 -1129 1323q-10 -305 2 -983q2 -96 42 -168t114 -86h-2q-31 4 -199 4q-182 2 -235 -4h-10q73 16 114 86q39 63 41 160q10 633 4 1005q0 68 -22 121q-25 62 -103 133q-28 27 -59 39q0 2 6 2 q213 -6 322 0q196 -250 989 -1169q6 442 -2 915q-2 99 -43 169.5t-115 82.5q2 2 4 2q31 -4 199 -4q180 -2 233 4q11 0 11 -2z" />
<glyph unicode="}" horiz-adv-x="466" d="M497 764q-35 -10 -57 -33q-86 -76 -105 -190q-12 -80 -2 -428q4 -150 -69 -213q-62 -56 -199 -62q-4 0 -4 4q127 33 133 271q0 120 2 241q6 150 43 240q53 131 195 168q-137 47 -191 170q-43 100 -49 266v268q-4 222 -125 254q0 2 2 2q129 -8 191 -57q71 -61 69 -199 q-4 -131 -6 -260q-2 -153 23 -260q32 -135 149 -182z" />
<glyph unicode="~" horiz-adv-x="1431" d="M1784 -164q-4 -8 -23 -12q-73 -14 -168 -14q-376 0 -591 192l-658 586v-365q0 -88 48 -147.5t126 -73.5q-2 -4 -6 -4q-258 8 -512 0q-6 0 -6 2q158 31 164 223q16 426 2 1112q-4 176 -156 207v2q379 -6 592 2q297 13 447 -125q133 -125 118 -336q-14 -184 -174 -327 q-166 -150 -397 -174v0l522 -453q174 -154 303 -217q176 -86 369 -78zM955 1104q-7 182 -117 285q-105 96 -273 96q-90 0 -186 -31q-35 -10 -35 -53v-746q47 -6 96 -6q218 0 363 119q160 127 152 336z" />
<glyph unicode="&#xa8;" horiz-adv-x="1024" />
<glyph unicode="&#xa9;" horiz-adv-x="1132" d="M1128 967q0 -232 -165.5 -396.5t-399.5 -164.5v0q-233 0 -398 164.5t-165 396.5q0 231 165 396t398 165q234 0 399.5 -165t165.5 -396zM997 967q0 213 -127 363.5t-307 150.5q-178 0 -305 -150.5t-127 -363.5q0 -211 127 -362.5t305 -151.5q180 0 307 151.5t127 362.5z M897 825v0q6 -2 -20 -82q-15 -38 -23 -57q-16 -33 -33 -41q-100 -59 -237 -59q-58 0 -111 12q-143 35 -223 143q-72 97 -72 222q0 159 109.5 269.5t269.5 115.5q148 6 301 -45q2 -72 -2 -150q2 51 -94 101.5t-193 52.5q-133 2 -211 -99q-67 -90 -67 -225q0 -141 74 -242 q81 -112 215 -112q145 0 241 88q58 49 76 108z" />
<glyph unicode="&#xae;" horiz-adv-x="1130" d="M1128 977q0 -234 -164.5 -397.5t-398.5 -163.5v0q-233 0 -399 164.5t-166 396.5q0 231 166 396t399 165q234 0 398.5 -165t164.5 -396zM997 977q0 211 -127 362.5t-305 151.5q-180 0 -307 -151.5t-127 -362.5q0 -213 127 -363.5t307 -150.5q178 0 305 150.5t127 363.5z M864 621q-33 -7 -63 -7q-68 0 -105 37l-237 258v-174q0 -94 88 -112h-2q-129 4 -256 0h-4q80 16 82 112q8 193 2 494q-2 88 -78 104v0q176 -4 284 0q109 4 176.5 -57.5t63.5 -153.5q-4 -82 -66.5 -140t-166.5 -73v0l235 -256q21 -22 47 -32zM717 1122q-4 78 -50 127t-120 49 q-33 0 -70 -12q-16 -2 -16 -24v-320q22 -4 45 -4q92 0 152.5 49t58.5 135z" />
<glyph unicode="&#xb4;" horiz-adv-x="1024" />
<glyph unicode="&#xb6;" horiz-adv-x="1024" d="M929 1435v-70h-127v-1365h-82v1365h-166v-1365h-84v738q-174 8 -275.5 102.5t-101.5 245.5q0 157 107.5 253t285.5 96h443z" />
<glyph unicode="&#xbc;" horiz-adv-x="980" d="M375 733q2 0 -4 0v0q-133 4 -273 0h-2q84 17 88 115q6 213 0 551q-2 106 -84 125h2q127 0 185 26q-11 -407 0 -702q4 -98 88 -115zM975 1565q-31 -45 -74 -111l-706 -1323q-41 -76 -80 -98l-115 -62q39 43 78 115l657 1227q53 100 105 141zM991 346q0 -2 -2 -2 q-14 -27 -57 -57q-55 -35 -105 -37h-43q0 -37 4 -131q3 -103 89 -117q0 -2 -3 -2v0q-122 4 -278 0q-2 0 -2 2q84 14 88 117q2 37 4 131h-360q336 414 462 596q-6 -135 -6 -533h113q53 0 96 33zM686 313v295l-246 -297z" />
<glyph unicode="&#xbd;" horiz-adv-x="1110" d="M375 733h-2v0q-135 4 -273 0h-2q82 17 86 115q9 194 0 551q-2 106 -82 125v0q140 4 185 26q-11 -391 2 -702q2 -98 86 -115zM975 1565q-31 -45 -74 -111l-706 -1323q-41 -76 -80 -98l-115 -62q39 43 78 115l657 1227q53 100 105 141zM1108 231q4 -2 -14.5 -62t-28.5 -81 q-39 -86 -86 -86h-442q204 242 219 262q147 197 147 322q0 45 -18 80q-49 96 -160 96q-74 0 -130 -46t-56 -116q-13 4 -11 10q11 101 88 158q70 51 168 51q101 0 168 -55q76 -57 74 -156q-4 -100 -100 -225q-119 -139 -240 -281v0q154 -2 217 2q180 15 205 127z" />
<glyph unicode="&#xbe;" horiz-adv-x="1073" d="M504 938q-74 -203 -285 -203q-72 0 -134.5 23.5t-69.5 43t-5 21.5q80 -65 174 -65q76 0 134.5 45t76.5 127q6 31 6 61q0 92 -61.5 153.5t-161.5 61.5q-23 0 -47 -4v0l170 238h-187q-73 -6 -86 -64q-2 0 -2 4q9 54 23 168q29 -8 59 -8h338l-231 -301q147 8 229 -63 q72 -64 72 -162q0 -39 -12 -76zM1048 1565q-30 -45 -73 -111l-707 -1323q-41 -78 -80 -98l-114 -62q38 43 77 115l658 1227q53 100 104 141zM1065 346v-2q-17 -27 -60 -57q-55 -35 -102 -37h-45q0 -37 4 -131q2 -103 88 -117q0 -2 -2 -2v0q-123 4 -278 0q-3 0 -3 2 q84 14 89 117q2 37 4 131h-361q336 414 463 596q-6 -135 -6 -533h113q53 0 96 33zM760 313v295l-246 -297z" />
<glyph unicode="&#xc0;" d="M1671 2q0 -4 -20 -2q-195 6 -439 0q-12 0 -10 2q70 23 70 107q0 51 -27 120l-139 344h-584l-116 -299q-44 -108 -44 -174q0 -84 64 -100h-4q-227 4 -420 0q-2 0 -2 2q143 29 246 250q162 350 577 1362q234 -518 658 -1409q88 -172 190 -203zM1063 672l-262 596l-242 -596 h504zM915 1700q-34 4 -118 18q-21 4 -49 37q-58 72 -170 205q-27 27 -27 25l-2 2l184 -27q39 -6 55 -37l97 -182q4 -6 17 -22.5t13 -18.5z" />
<glyph unicode="&#xc1;" d="M1671 2q0 -4 -20 -2q-195 6 -439 0q-12 0 -10 2q70 23 70 107q0 51 -27 120l-139 344h-584l-116 -299q-44 -108 -44 -174q0 -84 64 -100h-4q-227 4 -420 0q-2 0 -2 2q143 29 246 250q162 350 577 1362q234 -518 658 -1409q88 -172 190 -203zM1063 672l-262 596l-242 -596 h504zM1073 1989l-2 -2q-16 -17 -35 -35q-92 -109 -162 -195q-12 -16 -49 -37q-41 -6 -118 -18q-2 2 12 18.5t18 22.5l97 182q16 31 53 37z" />
<glyph unicode="&#x1ea2;" d="M1671 2q0 -4 -20 -2q-195 6 -439 0q-12 0 -10 2q70 23 70 107q0 51 -27 120l-139 344h-584l-116 -299q-44 -108 -44 -174q0 -84 64 -100h-4q-227 4 -420 0q-2 0 -2 2q143 29 246 250q162 350 577 1362q234 -518 658 -1409q88 -172 190 -203zM1063 672l-262 596l-242 -596 h504zM1041 1963q-1 -71 -55 -119q-44 -40 -109 -57l1 -39q0 -20 -18 -32t-87 -41q12 36 12 74v59q77 8 115 53q34 40 34 91q0 26 -11 47q-32 62 -102 62q-47 0 -83 -29q-37 -30 -37 -88q-32 9 -30 23q7 74 65 117q52 38 123 38q74 0 125 -40q58 -45 57 -119z" />
<glyph unicode="&#xc3;" d="M1671 2q0 -4 -20 -2q-195 6 -439 0q-12 0 -10 2q70 23 70 107q0 51 -27 120l-139 344h-584l-116 -299q-44 -108 -44 -174q0 -84 64 -100h-4q-227 4 -420 0q-2 0 -2 2q143 29 246 250q162 350 577 1362q234 -518 658 -1409q88 -172 190 -203zM1063 672l-262 596l-242 -596 h504zM1153 1929q-68 -166 -178 -166q-17 0 -31 4l-237 56q-43 10 -78 10q-92 0 -113 -64q-2 -2 -2 0q35 99 102 148q56 39 105 29l266 -58q33 -6 64 -6q79 0 100 47h2z" />
<glyph unicode="&#x1ea0;" d="M1671 2q0 -4 -20 -2q-195 6 -439 0q-12 0 -10 2q70 23 70 107q0 51 -27 120l-139 344h-584l-116 -299q-44 -108 -44 -174q0 -84 64 -100h-4q-227 4 -420 0q-2 0 -2 2q143 29 246 250q162 350 577 1362q234 -518 658 -1409q88 -172 190 -203zM1063 672l-262 596l-242 -596 h504zM928 -231q0 -47 -35.5 -80.5t-82.5 -33.5q-48 0 -82.5 33.5t-34.5 80.5q0 50 34.5 84.5t82.5 34.5q47 0 82.5 -34.5t35.5 -84.5z" />
<glyph unicode="&#xc2;" d="M1671 2q0 -4 -20 -2q-195 6 -439 0q-12 0 -10 2q70 23 70 107q0 51 -27 120l-139 344h-584l-116 -299q-44 -108 -44 -174q0 -84 64 -100h-4q-227 4 -420 0q-2 0 -2 2q143 29 246 250q162 350 577 1362q234 -518 658 -1409q88 -172 190 -203zM1063 672l-262 596l-242 -596 h504zM1176 1706q-84 -14 -123 -14q-60 0 -82 22l-144 156l-143 -156q-22 -22 -82 -22q-37 0 -123 14q43 20 96 61l252 199l252 -199q54 -41 97 -61z" />
<glyph unicode="&#x1ea6;" d="M1671 2q0 -4 -20 -2q-195 6 -439 0q-12 0 -10 2q70 23 70 107q0 51 -27 120l-139 344h-584l-116 -299q-44 -108 -44 -174q0 -84 64 -100h-4q-227 4 -420 0q-2 0 -2 2q143 29 246 250q162 350 577 1362q234 -518 658 -1409q88 -172 190 -203zM1063 672l-262 596l-242 -596 h504zM1068 1912q-34 4 -118 18q-21 4 -49 37q-58 72 -170 205q-27 27 -27 25l-2 2l184 -27q39 -6 55 -37l97 -182q4 -6 17 -22.5t13 -18.5zM1176 1706q-84 -14 -123 -14q-60 0 -82 22l-144 156l-143 -156q-22 -22 -82 -22q-37 0 -123 14q43 20 96 61l252 199l252 -199 q54 -41 97 -61z" />
<glyph unicode="&#x1ea4;" d="M1671 2q0 -4 -20 -2q-195 6 -439 0q-12 0 -10 2q70 23 70 107q0 51 -27 120l-139 344h-584l-116 -299q-44 -108 -44 -174q0 -84 64 -100h-4q-227 4 -420 0q-2 0 -2 2q143 29 246 250q162 350 577 1362q234 -518 658 -1409q88 -172 190 -203zM1063 672l-262 596l-242 -596 h504zM1309 2212l-2 -2q-16 -17 -35 -35q-92 -109 -162 -195q-12 -16 -49 -37q-41 -6 -118 -18q-2 2 12 18.5t18 22.5l97 182q16 31 53 37zM1176 1706q-84 -14 -123 -14q-60 0 -82 22l-144 156l-143 -156q-22 -22 -82 -22q-37 0 -123 14q43 20 96 61l252 199l252 -199 q54 -41 97 -61z" />
<glyph unicode="&#x1ea8;" d="M1671 2q0 -4 -20 -2q-195 6 -439 0q-12 0 -10 2q70 23 70 107q0 51 -27 120l-139 344h-584l-116 -299q-44 -108 -44 -174q0 -84 64 -100h-4q-227 4 -420 0q-2 0 -2 2q143 29 246 250q162 350 577 1362q234 -518 658 -1409q88 -172 190 -203zM1063 672l-262 596l-242 -596 h504zM1217 2198q-1 -71 -55 -119q-44 -40 -109 -57l1 -39q0 -20 -18 -32t-87 -41q12 36 12 74v59q77 8 115 53q34 40 34 91q0 26 -11 47q-32 62 -102 62q-47 0 -83 -29q-37 -30 -37 -88q-32 9 -30 23q7 74 65 117q52 38 123 38q74 0 125 -40q58 -45 57 -119zM1176 1706 q-84 -14 -123 -14q-60 0 -82 22l-144 156l-143 -156q-22 -22 -82 -22q-37 0 -123 14q43 20 96 61l252 199l252 -199q54 -41 97 -61z" />
<glyph unicode="&#x1eaa;" d="M1671 2q0 -4 -20 -2q-195 6 -439 0q-12 0 -10 2q70 23 70 107q0 51 -27 120l-139 344h-584l-116 -299q-44 -108 -44 -174q0 -84 64 -100h-4q-227 4 -420 0q-2 0 -2 2q143 29 246 250q162 350 577 1362q234 -518 658 -1409q88 -172 190 -203zM1063 672l-262 596l-242 -596 h504zM1247 2117q-68 -166 -178 -166q-17 0 -31 4l-237 56q-43 10 -78 10q-92 0 -113 -64q-2 -2 -2 0q35 99 102 148q56 39 105 29l266 -58q33 -6 64 -6q79 0 100 47h2zM1176 1706q-84 -14 -123 -14q-60 0 -82 22l-144 156l-143 -156q-22 -22 -82 -22q-37 0 -123 14 q43 20 96 61l252 199l252 -199q54 -41 97 -61z" />
<glyph unicode="&#x1eac;" d="M1671 2q0 -4 -20 -2q-195 6 -439 0q-12 0 -10 2q70 23 70 107q0 51 -27 120l-139 344h-584l-116 -299q-44 -108 -44 -174q0 -84 64 -100h-4q-227 4 -420 0q-2 0 -2 2q143 29 246 250q162 350 577 1362q234 -518 658 -1409q88 -172 190 -203zM1063 672l-262 596l-242 -596 h504zM928 -231q0 -47 -35.5 -80.5t-82.5 -33.5q-48 0 -82.5 33.5t-34.5 80.5q0 50 34.5 84.5t82.5 34.5q47 0 82.5 -34.5t35.5 -84.5zM1176 1706q-84 -14 -123 -14q-60 0 -82 22l-144 156l-143 -156q-22 -22 -82 -22q-37 0 -123 14q43 20 96 61l252 199l252 -199 q54 -41 97 -61z" />
<glyph unicode="&#x102;" d="M1671 2q0 -4 -20 -2q-195 6 -439 0q-12 0 -10 2q70 23 70 107q0 51 -27 120l-139 344h-584l-116 -299q-44 -108 -44 -174q0 -84 64 -100h-4q-227 4 -420 0q-2 0 -2 2q143 29 246 250q162 350 577 1362q234 -518 658 -1409q88 -172 190 -203zM1063 672l-262 596l-242 -596 h504zM1079 1818q-248 -250 -504 0q-53 41 -96 62q86 14 123 14q60 0 82 -22q144 -113 287 0q22 22 82 22q39 0 123 -14q-43 -21 -97 -62z" />
<glyph unicode="&#x1eb0;" d="M1671 2q0 -4 -20 -2q-195 6 -439 0q-12 0 -10 2q70 23 70 107q0 51 -27 120l-139 344h-584l-116 -299q-44 -108 -44 -174q0 -84 64 -100h-4q-227 4 -420 0q-2 0 -2 2q143 29 246 250q162 350 577 1362q234 -518 658 -1409q88 -172 190 -203zM1063 672l-262 596l-242 -596 h504zM928 1912q-34 4 -118 18q-21 4 -49 37q-58 72 -170 205q-27 27 -27 25l-2 2l184 -27q39 -6 55 -37l97 -182q4 -6 17 -22.5t13 -18.5zM1079 1818q-248 -250 -504 0q-53 41 -96 62q86 14 123 14q60 0 82 -22q144 -113 287 0q22 22 82 22q39 0 123 -14q-43 -21 -97 -62z " />
<glyph unicode="&#x1eae;" d="M1671 2q0 -4 -20 -2q-195 6 -439 0q-12 0 -10 2q70 23 70 107q0 51 -27 120l-139 344h-584l-116 -299q-44 -108 -44 -174q0 -84 64 -100h-4q-227 4 -420 0q-2 0 -2 2q143 29 246 250q162 350 577 1362q234 -518 658 -1409q88 -172 190 -203zM1063 672l-262 596l-242 -596 h504zM1144 2212l-2 -2q-16 -17 -35 -35q-92 -109 -162 -195q-12 -16 -49 -37q-41 -6 -118 -18q-2 2 12 18.5t18 22.5l97 182q16 31 53 37zM1079 1818q-248 -250 -504 0q-53 41 -96 62q86 14 123 14q60 0 82 -22q144 -113 287 0q22 22 82 22q39 0 123 -14q-43 -21 -97 -62z " />
<glyph unicode="&#x1eb2;" d="M1671 2q0 -4 -20 -2q-195 6 -439 0q-12 0 -10 2q70 23 70 107q0 51 -27 120l-139 344h-584l-116 -299q-44 -108 -44 -174q0 -84 64 -100h-4q-227 4 -420 0q-2 0 -2 2q143 29 246 250q162 350 577 1362q234 -518 658 -1409q88 -172 190 -203zM1063 672l-262 596l-242 -596 h504zM1093 2198q-1 -71 -55 -119q-44 -40 -109 -57l1 -39q0 -20 -18 -32t-87 -41q12 36 12 74v59q77 8 115 53q34 40 34 91q0 26 -11 47q-32 62 -102 62q-47 0 -83 -29q-37 -30 -37 -88q-32 9 -30 23q7 74 65 117q52 38 123 38q74 0 125 -40q58 -45 57 -119zM1079 1818 q-248 -250 -504 0q-53 41 -96 62q86 14 123 14q60 0 82 -22q144 -113 287 0q22 22 82 22q39 0 123 -14q-43 -21 -97 -62z" />
<glyph unicode="&#x1eb4;" d="M1671 2q0 -4 -20 -2q-195 6 -439 0q-12 0 -10 2q70 23 70 107q0 51 -27 120l-139 344h-584l-116 -299q-44 -108 -44 -174q0 -84 64 -100h-4q-227 4 -420 0q-2 0 -2 2q143 29 246 250q162 350 577 1362q234 -518 658 -1409q88 -172 190 -203zM1063 672l-262 596l-242 -596 h504zM1247 2117q-68 -166 -178 -166q-17 0 -31 4l-237 56q-43 10 -78 10q-92 0 -113 -64q-2 -2 -2 0q35 99 102 148q56 39 105 29l266 -58q33 -6 64 -6q79 0 100 47h2zM1079 1818q-248 -250 -504 0q-53 41 -96 62q86 14 123 14q60 0 82 -22q144 -113 287 0q22 22 82 22 q39 0 123 -14q-43 -21 -97 -62z" />
<glyph unicode="&#x1eb6;" d="M1671 2q0 -4 -20 -2q-195 6 -439 0q-12 0 -10 2q70 23 70 107q0 51 -27 120l-139 344h-584l-116 -299q-44 -108 -44 -174q0 -84 64 -100h-4q-227 4 -420 0q-2 0 -2 2q143 29 246 250q162 350 577 1362q234 -518 658 -1409q88 -172 190 -203zM1063 672l-262 596l-242 -596 h504zM928 -231q0 -47 -35.5 -80.5t-82.5 -33.5q-48 0 -82.5 33.5t-34.5 80.5q0 50 34.5 84.5t82.5 34.5q47 0 82.5 -34.5t35.5 -84.5zM1079 1818q-248 -250 -504 0q-53 41 -96 62q86 14 123 14q60 0 82 -22q144 -113 287 0q22 22 82 22q39 0 123 -14q-43 -21 -97 -62z" />
<glyph unicode="&#xc8;" horiz-adv-x="1327" d="M1270 436q8 -6 -27 -121.5t-53 -158.5q-39 -90 -59 -115q-33 -41 -97 -41h-1034q-6 0 -6 2q158 31 164 221q16 426 2 1112q-4 176 -156 207v2h930q162 0 190 4q-16 -129 -6 -346q0 -2 -2 -4q-2 107 -112 180q-97 64 -199 66q-248 4 -426 -2q-29 -2 -29 -19l-4 -549h498 q129 0 190 44q-16 -115 -6 -320q2 -6 -2 -6q-4 90 -82 139q-59 37 -137 39q-274 4 -463 0l4 -547q0 -117 103 -123q252 -16 403 15q363 73 416 321zM752 1700q-35 4 -119 18q-21 4 -49 37q-58 72 -170 205q-27 27 -27 25l-2 2l184 -27q39 -6 56 -37l96 -182q4 -6 17.5 -22.5 t13.5 -18.5z" />
<glyph unicode="&#xc9;" horiz-adv-x="1327" d="M1270 436q8 -6 -27 -121.5t-53 -158.5q-39 -90 -59 -115q-33 -41 -97 -41h-1034q-6 0 -6 2q158 31 164 221q16 426 2 1112q-4 176 -156 207v2h930q162 0 190 4q-16 -129 -6 -346q0 -2 -2 -4q-2 107 -112 180q-97 64 -199 66q-248 4 -426 -2q-29 -2 -29 -19l-4 -549h498 q129 0 190 44q-16 -115 -6 -320q2 -6 -2 -6q-4 90 -82 139q-59 37 -137 39q-274 4 -463 0l4 -547q0 -117 103 -123q252 -16 403 15q363 73 416 321zM868 1989l-2 -2q-16 -17 -34 -35q-93 -109 -162 -195q-12 -16 -49 -37q-41 -6 -119 -18q-2 2 12.5 18.5t18.5 22.5l96 182 q16 31 53 37z" />
<glyph unicode="&#x1eba;" horiz-adv-x="1327" d="M1270 436q8 -6 -27 -121.5t-53 -158.5q-39 -90 -59 -115q-33 -41 -97 -41h-1034q-6 0 -6 2q158 31 164 221q16 426 2 1112q-4 176 -156 207v2h930q162 0 190 4q-16 -129 -6 -346q0 -2 -2 -4q-2 107 -112 180q-97 64 -199 66q-248 4 -426 -2q-29 -2 -29 -19l-4 -549h498 q129 0 190 44q-16 -115 -6 -320q2 -6 -2 -6q-4 90 -82 139q-59 37 -137 39q-274 4 -463 0l4 -547q0 -117 103 -123q252 -16 403 15q363 73 416 321zM864 1963q-1 -71 -55 -119q-44 -40 -109 -57l1 -39q0 -20 -18 -32t-87 -41q12 36 12 74v59q77 8 115 53q34 40 34 91 q0 26 -11 47q-32 62 -102 62q-47 0 -83 -29q-37 -30 -37 -88q-32 9 -30 23q8 74 66 117q51 38 122 38q74 0 125 -40q58 -45 57 -119z" />
<glyph unicode="&#x1ebc;" horiz-adv-x="1327" d="M1270 436q8 -6 -27 -121.5t-53 -158.5q-39 -90 -59 -115q-33 -41 -97 -41h-1034q-6 0 -6 2q158 31 164 221q16 426 2 1112q-4 176 -156 207v2h930q162 0 190 4q-16 -129 -6 -346q0 -2 -2 -4q-2 107 -112 180q-97 64 -199 66q-248 4 -426 -2q-29 -2 -29 -19l-4 -549h498 q129 0 190 44q-16 -115 -6 -320q2 -6 -2 -6q-4 90 -82 139q-59 37 -137 39q-274 4 -463 0l4 -547q0 -117 103 -123q252 -16 403 15q363 73 416 321zM988 1929q-67 -166 -178 -166q-16 0 -31 4l-237 56q-43 10 -78 10q-92 0 -113 -64q-2 -2 -2 0q35 99 103 148q55 39 104 29 l266 -58q33 -6 64 -6q80 0 100 47h2z" />
<glyph unicode="&#x1eb8;" horiz-adv-x="1327" d="M1270 436q8 -6 -27 -121.5t-53 -158.5q-39 -90 -59 -115q-33 -41 -97 -41h-1034q-6 0 -6 2q158 31 164 221q16 426 2 1112q-4 176 -156 207v2h930q162 0 190 4q-16 -129 -6 -346q0 -2 -2 -4q-2 107 -112 180q-97 64 -199 66q-248 4 -426 -2q-29 -2 -29 -19l-4 -549h498 q129 0 190 44q-16 -115 -6 -320q2 -6 -2 -6q-4 90 -82 139q-59 37 -137 39q-274 4 -463 0l4 -547q0 -117 103 -123q252 -16 403 15q363 73 416 321zM704 -231q0 -47 -35.5 -80.5t-82.5 -33.5t-82 33.5t-35 80.5q0 50 35 84.5t82 34.5t82.5 -34.5t35.5 -84.5z" />
<glyph unicode="&#xca;" horiz-adv-x="1327" d="M1270 436q8 -6 -27 -121.5t-53 -158.5q-39 -90 -59 -115q-33 -41 -97 -41h-1034q-6 0 -6 2q158 31 164 221q16 426 2 1112q-4 176 -156 207v2h930q162 0 190 4q-16 -129 -6 -346q0 -2 -2 -4q-2 107 -112 180q-97 64 -199 66q-248 4 -426 -2q-29 -2 -29 -19l-4 -549h498 q129 0 190 44q-16 -115 -6 -320q2 -6 -2 -6q-4 90 -82 139q-59 37 -137 39q-274 4 -463 0l4 -547q0 -117 103 -123q252 -16 403 15q363 73 416 321zM971 1706q-84 -14 -123 -14q-59 0 -82 22l-143 156l-144 -156q-22 -22 -82 -22q-36 0 -122 14q43 20 96 61l252 199 l252 -199q53 -41 96 -61z" />
<glyph unicode="&#x1ec0;" horiz-adv-x="1327" d="M1270 436q8 -6 -27 -121.5t-53 -158.5q-39 -90 -59 -115q-33 -41 -97 -41h-1034q-6 0 -6 2q158 31 164 221q16 426 2 1112q-4 176 -156 207v2h930q162 0 190 4q-16 -129 -6 -346q0 -2 -2 -4q-2 107 -112 180q-97 64 -199 66q-248 4 -426 -2q-29 -2 -29 -19l-4 -549h498 q129 0 190 44q-16 -115 -6 -320q2 -6 -2 -6q-4 90 -82 139q-59 37 -137 39q-274 4 -463 0l4 -547q0 -117 103 -123q252 -16 403 15q363 73 416 321zM894 1900q-35 4 -119 18q-21 4 -49 37q-58 72 -170 205q-27 27 -27 25l-2 2l184 -27q39 -6 56 -37l96 -182q4 -6 17.5 -22.5 t13.5 -18.5zM971 1706q-84 -14 -123 -14q-59 0 -82 22l-143 156l-144 -156q-22 -22 -82 -22q-36 0 -122 14q43 20 96 61l252 199l252 -199q53 -41 96 -61z" />
<glyph unicode="&#x1ebe;" horiz-adv-x="1327" d="M1270 436q8 -6 -27 -121.5t-53 -158.5q-39 -90 -59 -115q-33 -41 -97 -41h-1034q-6 0 -6 2q158 31 164 221q16 426 2 1112q-4 176 -156 207v2h930q162 0 190 4q-16 -129 -6 -346q0 -2 -2 -4q-2 107 -112 180q-97 64 -199 66q-248 4 -426 -2q-29 -2 -29 -19l-4 -549h498 q129 0 190 44q-16 -115 -6 -320q2 -6 -2 -6q-4 90 -82 139q-59 37 -137 39q-274 4 -463 0l4 -547q0 -117 103 -123q252 -16 403 15q363 73 416 321zM1116 2189l-2 -2q-16 -17 -34 -35q-93 -109 -162 -195q-12 -16 -49 -37q-41 -6 -119 -18q-2 2 12.5 18.5t18.5 22.5l96 182 q16 31 53 37zM971 1706q-84 -14 -123 -14q-59 0 -82 22l-143 156l-144 -156q-22 -22 -82 -22q-36 0 -122 14q43 20 96 61l252 199l252 -199q53 -41 96 -61z" />
<glyph unicode="&#x1ec2;" horiz-adv-x="1327" d="M1270 436q8 -6 -27 -121.5t-53 -158.5q-39 -90 -59 -115q-33 -41 -97 -41h-1034q-6 0 -6 2q158 31 164 221q16 426 2 1112q-4 176 -156 207v2h930q162 0 190 4q-16 -129 -6 -346q0 -2 -2 -4q-2 107 -112 180q-97 64 -199 66q-248 4 -426 -2q-29 -2 -29 -19l-4 -549h498 q129 0 190 44q-16 -115 -6 -320q2 -6 -2 -6q-4 90 -82 139q-59 37 -137 39q-274 4 -463 0l4 -547q0 -117 103 -123q252 -16 403 15q363 73 416 321zM1006 2210q-1 -71 -55 -119q-44 -40 -109 -57l1 -39q0 -20 -18 -32t-87 -41q12 36 12 74v59q77 8 115 53q34 40 34 91 q0 26 -11 47q-32 62 -102 62q-47 0 -83 -29q-37 -30 -37 -88q-32 9 -30 23q8 74 66 117q51 38 122 38q74 0 125 -40q58 -45 57 -119zM971 1706q-84 -14 -123 -14q-59 0 -82 22l-143 156l-144 -156q-22 -22 -82 -22q-36 0 -122 14q43 20 96 61l252 199l252 -199 q53 -41 96 -61z" />
<glyph unicode="&#x1ec4;" horiz-adv-x="1327" d="M1270 436q8 -6 -27 -121.5t-53 -158.5q-39 -90 -59 -115q-33 -41 -97 -41h-1034q-6 0 -6 2q158 31 164 221q16 426 2 1112q-4 176 -156 207v2h930q162 0 190 4q-16 -129 -6 -346q0 -2 -2 -4q-2 107 -112 180q-97 64 -199 66q-248 4 -426 -2q-29 -2 -29 -19l-4 -549h498 q129 0 190 44q-16 -115 -6 -320q2 -6 -2 -6q-4 90 -82 139q-59 37 -137 39q-274 4 -463 0l4 -547q0 -117 103 -123q252 -16 403 15q363 73 416 321zM1047 2129q-67 -166 -178 -166q-16 0 -31 4l-237 56q-43 10 -78 10q-92 0 -113 -64q-2 -2 -2 0q35 99 103 148q55 39 104 29 l266 -58q33 -6 64 -6q80 0 100 47h2zM971 1706q-84 -14 -123 -14q-59 0 -82 22l-143 156l-144 -156q-22 -22 -82 -22q-36 0 -122 14q43 20 96 61l252 199l252 -199q53 -41 96 -61z" />
<glyph unicode="&#x1ec6;" horiz-adv-x="1327" d="M1270 436q8 -6 -27 -121.5t-53 -158.5q-39 -90 -59 -115q-33 -41 -97 -41h-1034q-6 0 -6 2q158 31 164 221q16 426 2 1112q-4 176 -156 207v2h930q162 0 190 4q-16 -129 -6 -346q0 -2 -2 -4q-2 107 -112 180q-97 64 -199 66q-248 4 -426 -2q-29 -2 -29 -19l-4 -549h498 q129 0 190 44q-16 -115 -6 -320q2 -6 -2 -6q-4 90 -82 139q-59 37 -137 39q-274 4 -463 0l4 -547q0 -117 103 -123q252 -16 403 15q363 73 416 321zM704 -231q0 -47 -35.5 -80.5t-82.5 -33.5t-82 33.5t-35 80.5q0 50 35 84.5t82 34.5t82.5 -34.5t35.5 -84.5zM971 1706 q-84 -14 -123 -14q-59 0 -82 22l-143 156l-144 -156q-22 -22 -82 -22q-36 0 -122 14q43 20 96 61l252 199l252 -199q53 -41 96 -61z" />
<glyph unicode="&#xcc;" horiz-adv-x="569" d="M522 -2q0 -2 -4 -2q-258 8 -512 0q-6 0 -6 2q158 29 164 223q16 449 0 1110q-4 178 -154 209v0q127 -4 252 -4t250 4q2 2 2 0q-152 -31 -156 -209q-14 -684 0 -1110q9 -192 164 -223zM403 1700q-34 4 -118 18q-21 4 -49 37q-58 72 -170 205q-27 27 -27 25l-2 2l184 -27 q39 -6 55 -37l97 -182q4 -6 17 -22.5t13 -18.5z" />
<glyph unicode="&#xcd;" horiz-adv-x="569" d="M522 -2q0 -2 -4 -2q-258 8 -512 0q-6 0 -6 2q158 29 164 223q16 449 0 1110q-4 178 -154 209v0q127 -4 252 -4t250 4q2 2 2 0q-152 -31 -156 -209q-14 -684 0 -1110q9 -192 164 -223zM479 1989l-2 -2q-16 -17 -35 -35q-92 -109 -161 -195q-13 -16 -50 -37 q-41 -6 -118 -18q-2 2 12 18.5t18 22.5l97 182q16 31 53 37z" />
<glyph unicode="&#x1ec8;" horiz-adv-x="569" d="M522 -2q0 -2 -4 -2q-258 8 -512 0q-6 0 -6 2q158 29 164 223q16 449 0 1110q-4 178 -154 209v0q127 -4 252 -4t250 4q2 2 2 0q-152 -31 -156 -209q-14 -684 0 -1110q9 -192 164 -223zM499 1963q-1 -71 -55 -119q-44 -40 -109 -57l1 -39q0 -20 -18 -32t-87 -41 q12 36 12 74v59q77 8 115 53q34 40 34 91q0 26 -11 47q-32 62 -102 62q-47 0 -83 -29q-37 -30 -37 -88q-32 9 -30 23q7 74 65 117q52 38 123 38q74 0 125 -40q58 -45 57 -119z" />
<glyph unicode="&#x128;" horiz-adv-x="569" d="M522 -2q0 -2 -4 -2q-258 8 -512 0q-6 0 -6 2q158 29 164 223q16 449 0 1110q-4 178 -154 209v0q127 -4 252 -4t250 4q2 2 2 0q-152 -31 -156 -209q-14 -684 0 -1110q9 -192 164 -223zM599 1929q-68 -166 -178 -166q-17 0 -31 4l-237 56q-43 10 -78 10q-92 0 -113 -64 q-2 -2 -2 0q35 99 102 148q56 39 105 29l266 -58q33 -6 64 -6q79 0 100 47h2z" />
<glyph unicode="&#x1eca;" horiz-adv-x="569" d="M522 -2q0 -2 -4 -2q-258 8 -512 0q-6 0 -6 2q158 29 164 223q16 449 0 1110q-4 178 -154 209v0q127 -4 252 -4t250 4q2 2 2 0q-152 -31 -156 -209q-14 -684 0 -1110q9 -192 164 -223zM376 -231q0 -47 -35.5 -80.5t-82.5 -33.5q-48 0 -82.5 33.5t-34.5 80.5 q0 50 34.5 84.5t82.5 34.5q47 0 82.5 -34.5t35.5 -84.5z" />
<glyph unicode="&#xd2;" horiz-adv-x="1732" d="M1575 772q0 -328 -231.5 -562.5t-557.5 -234.5v0q-325 0 -555.5 233.5t-230.5 563.5t230.5 563.5t555.5 233.5q326 0 557.5 -233.5t231.5 -563.5zM1354 842q-33 270 -204 453.5t-396 183.5q-250 0 -406 -222q-137 -194 -137 -456q0 -277 166 -496q180 -237 448 -237 q250 0 402 206q135 185 135 445q0 61 -8 123zM936 1700q-35 4 -119 18q-20 4 -49 37q-57 72 -170 205q-27 27 -27 25l-2 2l185 -27q39 -6 55 -37l96 -182q4 -6 17.5 -22.5t13.5 -18.5z" />
<glyph unicode="&#xd3;" horiz-adv-x="1732" d="M1575 772q0 -328 -231.5 -562.5t-557.5 -234.5v0q-325 0 -555.5 233.5t-230.5 563.5t230.5 563.5t555.5 233.5q326 0 557.5 -233.5t231.5 -563.5zM1354 842q-33 270 -204 453.5t-396 183.5q-250 0 -406 -222q-137 -194 -137 -456q0 -277 166 -496q180 -237 448 -237 q250 0 402 206q135 185 135 445q0 61 -8 123zM1073 1989l-2 -2q-16 -17 -35 -35q-92 -109 -162 -195q-12 -16 -49 -37q-41 -6 -118 -18q-2 2 12 18.5t18 22.5l97 182q16 31 53 37z" />
<glyph unicode="&#x1ece;" horiz-adv-x="1681" d="M1575 772q0 -328 -231.5 -562.5t-557.5 -234.5v0q-325 0 -555.5 233.5t-230.5 563.5t230.5 563.5t555.5 233.5q326 0 557.5 -233.5t231.5 -563.5zM1354 842q-33 270 -204 453.5t-396 183.5q-250 0 -406 -222q-137 -194 -137 -456q0 -277 166 -496q180 -237 448 -237 q250 0 402 206q135 185 135 445q0 61 -8 123zM982 1963q-1 -71 -55 -119q-44 -40 -109 -57l1 -39q0 -20 -18 -32t-87 -41q12 36 12 74v59q77 8 115 53q34 40 34 91q0 26 -11 47q-32 62 -102 62q-47 0 -83 -29q-37 -30 -37 -88q-32 9 -30 23q7 74 65 117q52 38 123 38 q74 0 125 -40q58 -45 57 -119z" />
<glyph unicode="&#xd5;" horiz-adv-x="1732" d="M1575 772q0 -328 -231.5 -562.5t-557.5 -234.5v0q-325 0 -555.5 233.5t-230.5 563.5t230.5 563.5t555.5 233.5q326 0 557.5 -233.5t231.5 -563.5zM1354 842q-33 270 -204 453.5t-396 183.5q-250 0 -406 -222q-137 -194 -137 -456q0 -277 166 -496q180 -237 448 -237 q250 0 402 206q135 185 135 445q0 61 -8 123zM1112 1929q-68 -166 -178 -166q-16 0 -31 4l-237 56q-39 8 -72 8q-86 0 -119 -62q-2 -2 -2 0q35 99 102 148q56 39 105 29l266 -58q33 -6 62 -6q71 0 102 47h2z" />
<glyph unicode="&#x1ecc;" horiz-adv-x="1681" d="M1575 772q0 -328 -231.5 -562.5t-557.5 -234.5v0q-325 0 -555.5 233.5t-230.5 563.5t230.5 563.5t555.5 233.5q326 0 557.5 -233.5t231.5 -563.5zM1354 842q-33 270 -204 453.5t-396 183.5q-250 0 -406 -222q-137 -194 -137 -456q0 -277 166 -496q180 -237 448 -237 q250 0 402 206q135 185 135 445q0 61 -8 123zM905 -231q0 -47 -35.5 -80.5t-83.5 -33.5q-47 0 -81.5 33.5t-34.5 80.5q0 50 34.5 84.5t81.5 34.5q48 0 83.5 -34.5t35.5 -84.5z" />
<glyph unicode="&#xd4;" horiz-adv-x="1732" d="M1575 772q0 -328 -231.5 -562.5t-557.5 -234.5v0q-325 0 -555.5 233.5t-230.5 563.5t230.5 563.5t555.5 233.5q326 0 557.5 -233.5t231.5 -563.5zM1354 842q-33 270 -204 453.5t-396 183.5q-250 0 -406 -222q-137 -194 -137 -456q0 -277 166 -496q180 -237 448 -237 q250 0 402 206q135 185 135 445q0 61 -8 123zM1135 1706q-84 -14 -123 -14q-60 0 -82 22l-144 156l-143 -156q-22 -22 -82 -22q-37 0 -123 14q43 20 97 61l251 199l252 -199q54 -41 97 -61z" />
<glyph unicode="&#x1ed2;" horiz-adv-x="1732" d="M1575 772q0 -328 -231.5 -562.5t-557.5 -234.5v0q-325 0 -555.5 233.5t-230.5 563.5t230.5 563.5t555.5 233.5q326 0 557.5 -233.5t231.5 -563.5zM1354 842q-33 270 -204 453.5t-396 183.5q-250 0 -406 -222q-137 -194 -137 -456q0 -277 166 -496q180 -237 448 -237 q250 0 402 206q135 185 135 445q0 61 -8 123zM1040 1924q-35 4 -119 18q-20 4 -49 37q-57 72 -170 205q-27 27 -27 25l-2 2l185 -27q39 -6 55 -37l96 -182q4 -6 17.5 -22.5t13.5 -18.5zM1135 1706q-84 -14 -123 -14q-60 0 -82 22l-144 156l-143 -156q-22 -22 -82 -22 q-37 0 -123 14q43 20 97 61l251 199l252 -199q54 -41 97 -61z" />
<glyph unicode="&#x1ed0;" horiz-adv-x="1732" d="M1575 772q0 -328 -231.5 -562.5t-557.5 -234.5v0q-325 0 -555.5 233.5t-230.5 563.5t230.5 563.5t555.5 233.5q326 0 557.5 -233.5t231.5 -563.5zM1354 842q-33 270 -204 453.5t-396 183.5q-250 0 -406 -222q-137 -194 -137 -456q0 -277 166 -496q180 -237 448 -237 q250 0 402 206q135 185 135 445q0 61 -8 123zM1272 2205l-2 -2q-16 -17 -35 -35q-92 -109 -162 -195q-12 -16 -49 -37q-41 -6 -118 -18q-2 2 12 18.5t18 22.5l97 182q16 31 53 37zM1135 1706q-84 -14 -123 -14q-60 0 -82 22l-144 156l-143 -156q-22 -22 -82 -22 q-37 0 -123 14q43 20 97 61l251 199l252 -199q54 -41 97 -61z" />
<glyph unicode="&#x1ed4;" horiz-adv-x="1681" d="M1575 772q0 -328 -231.5 -562.5t-557.5 -234.5v0q-325 0 -555.5 233.5t-230.5 563.5t230.5 563.5t555.5 233.5q326 0 557.5 -233.5t231.5 -563.5zM1354 842q-33 270 -204 453.5t-396 183.5q-250 0 -406 -222q-137 -194 -137 -456q0 -277 166 -496q180 -237 448 -237 q250 0 402 206q135 185 135 445q0 61 -8 123zM1155 2205q-1 -71 -55 -119q-44 -40 -109 -57l1 -39q0 -20 -18 -32t-87 -41q12 36 12 74v59q77 8 115 53q34 40 34 91q0 26 -11 47q-32 62 -102 62q-47 0 -83 -29q-37 -30 -37 -88q-32 9 -30 23q7 74 65 117q52 38 123 38 q74 0 125 -40q58 -45 57 -119zM1135 1706q-84 -14 -123 -14q-60 0 -82 22l-144 156l-143 -156q-22 -22 -82 -22q-37 0 -123 14q43 20 97 61l251 199l252 -199q54 -41 97 -61z" />
<glyph unicode="&#x1ed6;" horiz-adv-x="1732" d="M1575 772q0 -328 -231.5 -562.5t-557.5 -234.5v0q-325 0 -555.5 233.5t-230.5 563.5t230.5 563.5t555.5 233.5q326 0 557.5 -233.5t231.5 -563.5zM1354 842q-33 270 -204 453.5t-396 183.5q-250 0 -406 -222q-137 -194 -137 -456q0 -277 166 -496q180 -237 448 -237 q250 0 402 206q135 185 135 445q0 61 -8 123zM1207 2119q-68 -166 -178 -166q-16 0 -31 4l-237 56q-39 8 -72 8q-86 0 -119 -62q-2 -2 -2 0q35 99 102 148q56 39 105 29l266 -58q33 -6 62 -6q71 0 102 47h2zM1135 1706q-84 -14 -123 -14q-60 0 -82 22l-144 156l-143 -156 q-22 -22 -82 -22q-37 0 -123 14q43 20 97 61l251 199l252 -199q54 -41 97 -61z" />
<glyph unicode="&#x1ed8;" horiz-adv-x="1681" d="M1575 772q0 -328 -231.5 -562.5t-557.5 -234.5v0q-325 0 -555.5 233.5t-230.5 563.5t230.5 563.5t555.5 233.5q326 0 557.5 -233.5t231.5 -563.5zM1354 842q-33 270 -204 453.5t-396 183.5q-250 0 -406 -222q-137 -194 -137 -456q0 -277 166 -496q180 -237 448 -237 q250 0 402 206q135 185 135 445q0 61 -8 123zM905 -231q0 -47 -35.5 -80.5t-83.5 -33.5q-47 0 -81.5 33.5t-34.5 80.5q0 50 34.5 84.5t81.5 34.5q48 0 83.5 -34.5t35.5 -84.5zM1135 1706q-84 -14 -123 -14q-60 0 -82 22l-144 156l-143 -156q-22 -22 -82 -22q-37 0 -123 14 q43 20 97 61l251 199l252 -199q54 -41 97 -61z" />
<glyph unicode="&#xd9;" horiz-adv-x="1548" d="M1548 2q0 -4 -4 -4q-65 6 -344 0q2 14 6 201q-176 -219 -475 -219q-242 2 -405 151q-172 160 -175 414q3 272 0 788q-4 180 -147 209v2q127 -6 246 -6t246 6v-2q-152 -31 -156 -209v-745q0 -279 178 -424q164 -133 369 -72q219 66 323 320q8 493 0 921q-2 176 -166 209 q0 2 2 2q246 -12 492 0q2 0 2 -2q-141 -29 -145 -209q-15 -684 0 -1112q8 -192 153 -219zM854 1700q-35 4 -119 18q-20 4 -49 37q-57 72 -170 205q-27 27 -27 25l-2 2l185 -27q39 -6 55 -37l96 -182q4 -6 17.5 -22.5t13.5 -18.5z" />
<glyph unicode="&#xda;" horiz-adv-x="1548" d="M1548 2q0 -4 -4 -4q-65 6 -344 0q2 14 6 201q-176 -219 -475 -219q-242 2 -405 151q-172 160 -175 414q3 272 0 788q-4 180 -147 209v2q127 -6 246 -6t246 6v-2q-152 -31 -156 -209v-745q0 -279 178 -424q164 -133 369 -72q219 66 323 320q8 493 0 921q-2 176 -166 209 q0 2 2 2q246 -12 492 0q2 0 2 -2q-141 -29 -145 -209q-15 -684 0 -1112q8 -192 153 -219zM1012 1989l-2 -2l-35 -35q-92 -109 -162 -195q-12 -16 -49 -37q-41 -6 -119 -18q-2 2 12.5 18.5t18.5 22.5l96 182q16 31 53 37z" />
<glyph unicode="&#x1ee6;" horiz-adv-x="1548" d="M1548 2q0 -4 -4 -4q-65 6 -344 0q2 14 6 201q-176 -219 -475 -219q-242 2 -405 151q-172 160 -175 414q3 272 0 788q-4 180 -147 209v2q127 -6 246 -6t246 6v-2q-152 -31 -156 -209v-745q0 -279 178 -424q164 -133 369 -72q219 66 323 320q8 493 0 921q-2 176 -166 209 q0 2 2 2q246 -12 492 0q2 0 2 -2q-141 -29 -145 -209q-15 -684 0 -1112q8 -192 153 -219zM982 1963q-1 -71 -55 -119q-44 -40 -109 -57v-39q0 -20 -17.5 -32t-86.5 -41q12 36 12 74v59q77 8 115 53q33 40 33 91q0 26 -10 47q-32 62 -102 62q-47 0 -83 -29q-37 -30 -37 -88 q-32 9 -30 23q7 74 65 117q52 38 123 38q74 0 125 -40q58 -45 57 -119z" />
<glyph unicode="&#x168;" horiz-adv-x="1548" d="M1548 2q0 -4 -4 -4q-65 6 -344 0q2 14 6 201q-176 -219 -475 -219q-242 2 -405 151q-172 160 -175 414q3 272 0 788q-4 180 -147 209v2q127 -6 246 -6t246 6v-2q-152 -31 -156 -209v-745q0 -279 178 -424q164 -133 369 -72q219 66 323 320q8 493 0 921q-2 176 -166 209 q0 2 2 2q246 -12 492 0q2 0 2 -2q-141 -29 -145 -209q-15 -684 0 -1112q8 -192 153 -219zM1112 1929q-68 -166 -178 -166q-17 0 -31 4l-237 56q-39 8 -72 8q-86 0 -119 -62q-2 -2 -2 0q35 99 102 148q56 39 105 29l266 -58q33 -6 62 -6q71 0 102 47h2z" />
<glyph unicode="&#x1ee4;" horiz-adv-x="1548" d="M1548 2q0 -4 -4 -4q-65 6 -344 0q2 14 6 201q-176 -219 -475 -219q-242 2 -405 151q-172 160 -175 414q3 272 0 788q-4 180 -147 209v2q127 -6 246 -6t246 6v-2q-152 -31 -156 -209v-745q0 -279 178 -424q164 -133 369 -72q219 66 323 320q8 493 0 921q-2 176 -166 209 q0 2 2 2q246 -12 492 0q2 0 2 -2q-141 -29 -145 -209q-15 -684 0 -1112q8 -192 153 -219zM905 -231q0 -47 -36 -80.5t-83 -33.5t-81.5 33.5t-34.5 80.5q0 50 34.5 84.5t81.5 34.5t83 -34.5t36 -84.5z" />
<glyph unicode="&#x1af;" horiz-adv-x="1548" d="M1426 1464q-29 -50 -31 -131q-15 -684 0 -1112q8 -192 153 -219q0 -4 -4 -4q-65 6 -344 0q2 14 6 201q-176 -219 -475 -219q-242 2 -405 151q-172 160 -174 414q2 272 0 788q-5 180 -148 209v2q127 -6 246 -6t246 6v-2q-152 -31 -156 -209v-745q0 -279 178 -424 q164 -133 369 -72q219 66 323 320q9 493 0 921q-2 176 -166 209q0 2 3 2q218 -11 437 -2q14 14 21 27q-42 9 -69 44q-51 63 -6 130q20 30 53 44q56 22 104 -10q46 -30 52 -78.5t-24 -95.5q-52 -79 -144 -121q-26 -11 -45 -18z" />
<glyph unicode="&#x1eea;" horiz-adv-x="1548" d="M854 1700q-35 4 -119 18q-20 4 -49 37q-57 72 -170 205q-27 27 -27 25l-2 2l185 -27q39 -6 55 -37l96 -182q4 -6 17.5 -22.5t13.5 -18.5zM1426 1464q-29 -50 -31 -131q-15 -684 0 -1112q8 -192 153 -219q0 -4 -4 -4q-65 6 -344 0q2 14 6 201q-176 -219 -475 -219 q-242 2 -405 151q-172 160 -174 414q2 272 0 788q-5 180 -148 209v2q127 -6 246 -6t246 6v-2q-152 -31 -156 -209v-745q0 -279 178 -424q164 -133 369 -72q219 66 323 320q9 493 0 921q-2 176 -166 209q0 2 3 2q218 -11 437 -2q14 14 21 27q-42 9 -69 44q-51 63 -6 130 q20 30 53 44q56 22 104 -10q46 -30 52 -78.5t-24 -95.5q-52 -79 -144 -121q-26 -11 -45 -18z" />
<glyph unicode="&#x1ee8;" horiz-adv-x="1548" d="M1012 1989l-2 -2l-35 -35q-92 -109 -162 -195q-12 -16 -49 -37q-41 -6 -119 -18q-2 2 12.5 18.5t18.5 22.5l96 182q16 31 53 37zM1426 1464q-29 -50 -31 -131q-15 -684 0 -1112q8 -192 153 -219q0 -4 -4 -4q-65 6 -344 0q2 14 6 201q-176 -219 -475 -219q-242 2 -405 151 q-172 160 -174 414q2 272 0 788q-5 180 -148 209v2q127 -6 246 -6t246 6v-2q-152 -31 -156 -209v-745q0 -279 178 -424q164 -133 369 -72q219 66 323 320q9 493 0 921q-2 176 -166 209q0 2 3 2q218 -11 437 -2q14 14 21 27q-42 9 -69 44q-51 63 -6 130q20 30 53 44 q56 22 104 -10q46 -30 52 -78.5t-24 -95.5q-52 -79 -144 -121q-26 -11 -45 -18z" />
<glyph unicode="&#x1eec;" horiz-adv-x="1548" d="M982 1963q-1 -71 -55 -119q-44 -40 -109 -57l1 -39q0 -20 -18 -32t-87 -41q12 36 12 74v59q77 8 115 53q34 40 34 91q0 26 -11 47q-32 62 -102 62q-47 0 -83 -29q-37 -30 -37 -88q-32 9 -30 23q7 74 65 117q52 38 123 38q74 0 125 -40q58 -45 57 -119zM1426 1464 q-29 -50 -31 -131q-15 -684 0 -1112q8 -192 153 -219q0 -4 -4 -4q-65 6 -344 0q2 14 6 201q-176 -219 -475 -219q-242 2 -405 151q-172 160 -174 414q2 272 0 788q-5 180 -148 209v2q127 -6 246 -6t246 6v-2q-152 -31 -156 -209v-745q0 -279 178 -424q164 -133 369 -72 q219 66 323 320q9 493 0 921q-2 176 -166 209q0 2 3 2q218 -11 437 -2q14 14 21 27q-42 9 -69 44q-51 63 -6 130q20 30 53 44q56 22 104 -10q46 -30 52 -78.5t-24 -95.5q-52 -79 -144 -121q-26 -11 -45 -18z" />
<glyph unicode="&#x1eee;" horiz-adv-x="1548" d="M1112 1929q-68 -166 -178 -166q-16 0 -31 4l-237 56q-39 8 -72 8q-86 0 -119 -62q-2 -2 -2 0q35 99 102 148q56 39 105 29l266 -58q33 -6 62 -6q71 0 102 47h2zM1426 1464q-29 -50 -31 -131q-15 -684 0 -1112q8 -192 153 -219q0 -4 -4 -4q-65 6 -344 0q2 14 6 201 q-176 -219 -475 -219q-242 2 -405 151q-172 160 -174 414q2 272 0 788q-5 180 -148 209v2q127 -6 246 -6t246 6v-2q-152 -31 -156 -209v-745q0 -279 178 -424q164 -133 369 -72q219 66 323 320q9 493 0 921q-2 176 -166 209q0 2 3 2q218 -11 437 -2q14 14 21 27 q-42 9 -69 44q-51 63 -6 130q20 30 53 44q56 22 104 -10q46 -30 52 -78.5t-24 -95.5q-52 -79 -144 -121q-26 -11 -45 -18z" />
<glyph unicode="&#x1ef0;" horiz-adv-x="1548" d="M905 -231q0 -47 -35.5 -80.5t-83.5 -33.5q-47 0 -81.5 33.5t-34.5 80.5q0 50 34.5 84.5t81.5 34.5q48 0 83.5 -34.5t35.5 -84.5zM1426 1464q-29 -50 -31 -131q-15 -684 0 -1112q8 -192 153 -219q0 -4 -4 -4q-65 6 -344 0q2 14 6 201q-176 -219 -475 -219q-242 2 -405 151 q-172 160 -174 414q2 272 0 788q-5 180 -148 209v2q127 -6 246 -6t246 6v-2q-152 -31 -156 -209v-745q0 -279 178 -424q164 -133 369 -72q219 66 323 320q9 493 0 921q-2 176 -166 209q0 2 3 2q218 -11 437 -2q14 14 21 27q-42 9 -69 44q-51 63 -6 130q20 30 53 44 q56 22 104 -10q46 -30 52 -78.5t-24 -95.5q-52 -79 -144 -121q-26 -11 -45 -18z" />
<glyph unicode="&#x1a0;" horiz-adv-x="1681" d="M1354 842q-33 270 -204 453.5t-396 183.5q-250 0 -406 -222q-137 -194 -137 -456q0 -277 166 -496q180 -237 448 -237q250 0 402 206q135 185 135 445q0 61 -8 123zM1183 1462q85 -51 161 -126q231 -234 231 -564q0 -328 -231.5 -562.5t-557.5 -234.5 q-325 0 -555.5 233.5t-230.5 563.5t230.5 563.5t555.5 233.5q204 0 372 -92q17 9 40 24q54 38 70 68q-42 9 -69 44q-51 63 -6 130q20 30 53 44q56 22 104 -10q46 -30 52 -78.5t-24 -95.5q-52 -79 -144 -121q-30 -13 -51 -20z" />
<glyph unicode="&#x1edc;" horiz-adv-x="1732" d="M1354 842q-33 270 -204 453.5t-396 183.5q-250 0 -406 -222q-137 -194 -137 -456q0 -277 166 -496q180 -237 448 -237q250 0 402 206q135 185 135 445q0 61 -8 123zM936 1700q-35 4 -119 18q-20 4 -49 37q-57 72 -170 205q-27 27 -27 25l-2 2l185 -27q39 -6 55 -37 l96 -182q4 -6 17.5 -22.5t13.5 -18.5zM1183 1462q85 -51 161 -126q231 -234 231 -564q0 -328 -231.5 -562.5t-557.5 -234.5q-325 0 -555.5 233.5t-230.5 563.5t230.5 563.5t555.5 233.5q204 0 372 -92q17 9 40 24q54 38 70 68q-42 9 -69 44q-51 63 -6 130q20 30 53 44 q56 22 104 -10q46 -30 52 -78.5t-24 -95.5q-52 -79 -144 -121q-30 -13 -51 -20z" />
<glyph unicode="&#x1eda;" horiz-adv-x="1732" d="M1354 842q-33 270 -204 453.5t-396 183.5q-250 0 -406 -222q-137 -194 -137 -456q0 -277 166 -496q180 -237 448 -237q250 0 402 206q135 185 135 445q0 61 -8 123zM1073 1989l-2 -2q-16 -17 -35 -35q-92 -109 -162 -195q-12 -16 -49 -37q-41 -6 -118 -18q-2 2 12 18.5 t18 22.5l97 182q16 31 53 37zM1183 1462q85 -51 161 -126q231 -234 231 -564q0 -328 -231.5 -562.5t-557.5 -234.5q-325 0 -555.5 233.5t-230.5 563.5t230.5 563.5t555.5 233.5q204 0 372 -92q17 9 40 24q54 38 70 68q-42 9 -69 44q-51 63 -6 130q20 30 53 44q56 22 104 -10 q46 -30 52 -78.5t-24 -95.5q-52 -79 -144 -121q-30 -13 -51 -20z" />
<glyph unicode="&#x1ede;" horiz-adv-x="1681" d="M1354 842q-33 270 -204 453.5t-396 183.5q-250 0 -406 -222q-137 -194 -137 -456q0 -277 166 -496q180 -237 448 -237q250 0 402 206q135 185 135 445q0 61 -8 123zM982 1963q-1 -71 -55 -119q-44 -40 -109 -57l1 -39q0 -20 -18 -32t-87 -41q12 36 12 74v59q77 8 115 53 q34 40 34 91q0 26 -11 47q-32 62 -102 62q-47 0 -83 -29q-37 -30 -37 -88q-32 9 -30 23q7 74 65 117q52 38 123 38q74 0 125 -40q58 -45 57 -119zM1183 1462q85 -51 161 -126q231 -234 231 -564q0 -328 -231.5 -562.5t-557.5 -234.5q-325 0 -555.5 233.5t-230.5 563.5 t230.5 563.5t555.5 233.5q204 0 372 -92q17 9 40 24q54 38 70 68q-42 9 -69 44q-51 63 -6 130q20 30 53 44q56 22 104 -10q46 -30 52 -78.5t-24 -95.5q-52 -79 -144 -121q-30 -13 -51 -20z" />
<glyph unicode="&#x1ee0;" horiz-adv-x="1732" d="M1354 842q-33 270 -204 453.5t-396 183.5q-250 0 -406 -222q-137 -194 -137 -456q0 -277 166 -496q180 -237 448 -237q250 0 402 206q135 185 135 445q0 61 -8 123zM1112 1929q-68 -166 -178 -166q-16 0 -31 4l-237 56q-39 8 -72 8q-86 0 -119 -62q-2 -2 -2 0 q35 99 102 148q56 39 105 29l266 -58q33 -6 62 -6q71 0 102 47h2zM1158 1477q17 9 40 24q54 38 70 68q-42 9 -69 44q-51 63 -6 130q20 30 53 44q56 22 104 -10q46 -30 52 -78.5t-24 -95.5q-52 -79 -144 -121q-30 -13 -51 -20q85 -51 161 -126q231 -234 231 -564 q0 -328 -231.5 -562.5t-557.5 -234.5q-325 0 -555.5 233.5t-230.5 563.5t230.5 563.5t555.5 233.5q204 0 372 -92z" />
<glyph unicode="&#x1ee2;" horiz-adv-x="1681" d="M1354 842q-33 270 -204 453.5t-396 183.5q-250 0 -406 -222q-137 -194 -137 -456q0 -277 166 -496q180 -237 448 -237q250 0 402 206q135 185 135 445q0 61 -8 123zM905 -231q0 -47 -35.5 -80.5t-83.5 -33.5q-47 0 -81.5 33.5t-34.5 80.5q0 50 34.5 84.5t81.5 34.5 q48 0 83.5 -34.5t35.5 -84.5zM1183 1462q85 -51 161 -126q231 -234 231 -564q0 -328 -231.5 -562.5t-557.5 -234.5q-325 0 -555.5 233.5t-230.5 563.5t230.5 563.5t555.5 233.5q204 0 372 -92q17 9 40 24q54 38 70 68q-42 9 -69 44q-51 63 -6 130q20 30 53 44q56 22 104 -10 q46 -30 52 -78.5t-24 -95.5q-52 -79 -144 -121q-30 -13 -51 -20z" />
<glyph unicode="&#x1ef2;" horiz-adv-x="1626" d="M1632 1542q-96 -24 -229 -207l-496 -673q0 -218 8 -439q7 -192 164 -221q0 -2 -6 -4q-256 8 -512 0q-4 0 -4 2q158 31 164 223q6 185 8 436l-498 676q-133 183 -231 207v2q262 -12 512 0q2 0 4 -2q-84 -18 -84 -96q0 -49 37 -111l401 -534l385 534q43 58 43 109 q0 80 -90 98q0 2 2 2q205 -10 422 0q2 0 0 -2zM936 1700q-35 4 -119 18q-20 4 -49 37q-57 72 -170 205q-27 27 -27 25l-2 2l185 -27q39 -6 55 -37l96 -182q4 -6 17.5 -22.5t13.5 -18.5z" />
<glyph unicode="&#xdd;" horiz-adv-x="1626" d="M1632 1542q-96 -24 -229 -207l-496 -673q0 -218 8 -439q7 -192 164 -221q0 -2 -6 -4q-256 8 -512 0q-4 0 -4 2q158 31 164 223q6 185 8 436l-498 676q-133 183 -231 207v2q262 -12 512 0q2 0 4 -2q-84 -18 -84 -96q0 -49 37 -111l401 -534l385 534q43 58 43 109 q0 80 -90 98q0 2 2 2q205 -10 422 0q2 0 0 -2zM1071 1989l-2 -2l-35 -35q-92 -109 -162 -195q-12 -16 -49 -37q-41 -6 -119 -18q-2 2 12.5 18.5t18.5 22.5l96 182q16 31 53 37z" />
<glyph unicode="&#x1ef6;" horiz-adv-x="1626" d="M1632 1542q-96 -24 -229 -207l-496 -673q0 -218 8 -439q7 -192 164 -221q0 -2 -6 -4q-256 8 -512 0q-4 0 -4 2q158 31 164 223q6 185 8 436l-498 676q-133 183 -231 207v2q262 -12 512 0q2 0 4 -2q-84 -18 -84 -96q0 -49 37 -111l401 -534l385 534q43 58 43 109 q0 80 -90 98q0 2 2 2q205 -10 422 0q2 0 0 -2zM1065 1963q-1 -71 -55 -119q-44 -40 -109 -57l1 -39q0 -20 -18 -32t-87 -41q12 36 12 74v59q77 8 115 53q34 40 34 91q0 26 -11 47q-32 62 -102 62q-47 0 -83 -29q-37 -30 -37 -88q-32 9 -30 23q7 74 65 117q52 38 123 38 q74 0 125 -40q58 -45 57 -119z" />
<glyph unicode="&#x1ef8;" horiz-adv-x="1626" d="M1632 1542q-96 -24 -229 -207l-496 -673q0 -218 8 -439q7 -192 164 -221q0 -2 -6 -4q-256 8 -512 0q-4 0 -4 2q158 31 164 223q6 185 8 436l-498 676q-133 183 -231 207v2q262 -12 512 0q2 0 4 -2q-84 -18 -84 -96q0 -49 37 -111l401 -534l385 534q43 58 43 109 q0 80 -90 98q0 2 2 2q205 -10 422 0q2 0 0 -2zM1182 1929q-68 -166 -178 -166q-16 0 -31 4l-237 56q-39 8 -72 8q-86 0 -119 -62q-2 -2 -2 0q35 99 102 148q56 39 105 29l266 -58q33 -6 62 -6q71 0 102 47h2z" />
<glyph unicode="&#x1ef4;" horiz-adv-x="1626" d="M1632 1542q-96 -24 -229 -207l-496 -673q0 -218 8 -439q7 -192 164 -221q0 -2 -6 -4q-256 8 -512 0q-4 0 -4 2q158 31 164 223q6 185 8 436l-498 676q-133 183 -231 207v2q262 -12 512 0q2 0 4 -2q-84 -18 -84 -96q0 -49 37 -111l401 -534l385 534q43 58 43 109 q0 80 -90 98q0 2 2 2q205 -10 422 0q2 0 0 -2zM942 -231q0 -47 -35.5 -80.5t-83.5 -33.5q-47 0 -81.5 33.5t-34.5 80.5q0 50 34.5 84.5t81.5 34.5q48 0 83.5 -34.5t35.5 -84.5z" />
<glyph unicode="&#xe0;" horiz-adv-x="1386" d="M1335 0q-2 -2 -14 0q-156 6 -350 0h-10q57 18 57 86q0 41 -23 96l-110 277h-467l-94 -238q-33 -88 -33 -141q0 -66 49 -80h-2q-182 4 -336 0h-2q115 25 197 201q129 280 462 1091q187 -415 525 -1128q71 -139 151 -164zM850 539l-211 475l-190 -475h401zM744 1338 q-34 4 -118 18q-21 4 -49 37q-58 72 -170 205q-27 27 -27 25l-2 2l184 -27q39 -6 55 -37l97 -182q4 -6 17 -22.5t13 -18.5z" />
<glyph unicode="&#xe1;" horiz-adv-x="1386" d="M1335 0q-2 -2 -14 0q-156 6 -350 0h-10q57 18 57 86q0 41 -23 96l-110 277h-467l-94 -238q-33 -88 -33 -141q0 -66 49 -80h-2q-182 4 -336 0h-2q115 25 197 201q129 280 462 1091q187 -415 525 -1128q71 -139 151 -164zM850 539l-211 475l-190 -475h401zM572 1356.5 q13 16.5 18 22.5l96 182q16 31 55 37l184 27l-2 -2q0 2 -26 -25q-113 -133 -170 -205q-29 -33 -49 -37q-84 -14 -119 -18q0 2 13 18.5z" />
<glyph unicode="&#x1ea3;" horiz-adv-x="1386" d="M1335 0q-2 -2 -14 0q-156 6 -350 0h-10q57 18 57 86q0 41 -23 96l-110 277h-467l-94 -238q-33 -88 -33 -141q0 -66 49 -80h-2q-182 4 -336 0h-2q115 25 197 201q129 280 462 1091q187 -415 525 -1128q71 -139 151 -164zM850 539l-211 475l-190 -475h401zM878 1611 q-1 -71 -55 -119q-44 -40 -109 -57l1 -39q0 -20 -18 -32t-87 -41q12 36 12 74v59q77 8 115 53q34 40 34 91q0 26 -11 47q-32 62 -102 62q-47 0 -83 -29q-37 -30 -37 -88q-32 9 -30 23q7 74 65 117q52 38 123 38q74 0 125 -40q58 -45 57 -119z" />
<glyph unicode="&#xe3;" horiz-adv-x="1386" d="M1335 0q-2 -2 -14 0q-156 6 -350 0h-10q57 18 57 86q0 41 -23 96l-110 277h-467l-94 -238q-33 -88 -33 -141q0 -66 49 -80h-2q-182 4 -336 0h-2q115 25 197 201q129 280 462 1091q187 -415 525 -1128q71 -139 151 -164zM850 539l-211 475l-190 -475h401zM1011 1529 q-68 -166 -178 -166q-16 0 -31 4l-237 56q-39 8 -72 8q-86 0 -119 -62q-2 -2 -2 0q35 99 102 148q56 39 105 29l266 -58q33 -6 62 -6q71 0 102 47h2z" />
<glyph unicode="&#x1ea1;" horiz-adv-x="1386" d="M1335 0q-2 -2 -14 0q-156 6 -350 0h-10q57 18 57 86q0 41 -23 96l-110 277h-467l-94 -238q-33 -88 -33 -141q0 -66 49 -80h-2q-182 4 -336 0h-2q115 25 197 201q129 280 462 1091q187 -415 525 -1128q71 -139 151 -164zM850 539l-211 475l-190 -475h401zM770 -231 q0 -47 -35.5 -80.5t-83.5 -33.5q-47 0 -81.5 33.5t-34.5 80.5q0 50 34.5 84.5t81.5 34.5q48 0 83.5 -34.5t35.5 -84.5z" />
<glyph unicode="&#xe2;" horiz-adv-x="1386" d="M1335 0q-2 -2 -14 0q-156 6 -350 0h-10q57 18 57 86q0 41 -23 96l-110 277h-467l-94 -238q-33 -88 -33 -141q0 -66 49 -80h-2q-182 4 -336 0h-2q115 25 197 201q129 280 462 1091q187 -415 525 -1128q71 -139 151 -164zM850 539l-211 475l-190 -475h401zM1000 1296 q-84 -14 -123 -14q-59 0 -82 23l-143 155l-143 -155q-23 -23 -82 -23q-37 0 -123 14q43 21 96 62l252 198l252 -198q53 -41 96 -62z" />
<glyph unicode="&#x1ea7;" horiz-adv-x="1386" d="M1335 0q-2 -2 -14 0q-156 6 -350 0h-10q57 18 57 86q0 41 -23 96l-110 277h-467l-94 -238q-33 -88 -33 -141q0 -66 49 -80h-2q-182 4 -336 0h-2q115 25 197 201q129 280 462 1091q187 -415 525 -1128q71 -139 151 -164zM850 539l-211 475l-190 -475h401zM906 1500 q-34 4 -118 18q-21 4 -49 37q-58 72 -170 205q-27 27 -27 25l-2 2l184 -27q39 -6 55 -37l97 -182q4 -6 17 -22.5t13 -18.5zM991 1296q-84 -14 -123 -14q-59 0 -82 23l-143 155l-143 -155q-23 -23 -82 -23q-37 0 -123 14q43 21 96 62l252 198l252 -198q53 -41 96 -62z" />
<glyph unicode="&#x1ea5;" horiz-adv-x="1386" d="M1335 0q-2 -2 -14 0q-156 6 -350 0h-10q57 18 57 86q0 41 -23 96l-110 277h-467l-94 -238q-33 -88 -33 -141q0 -66 49 -80h-2q-182 4 -336 0h-2q115 25 197 201q129 280 462 1091q187 -415 525 -1128q71 -139 151 -164zM850 539l-211 475l-190 -475h401zM762 1537.5 q13 16.5 18 22.5l96 182q16 31 55 37l184 27l-2 -2q0 2 -26 -25q-113 -133 -170 -205q-29 -33 -49 -37q-84 -14 -119 -18q0 2 13 18.5zM1000 1296q-84 -14 -123 -14q-59 0 -82 23l-143 155l-143 -155q-23 -23 -82 -23q-37 0 -123 14q43 21 96 62l252 198l252 -198 q53 -41 96 -62z" />
<glyph unicode="&#x1ea9;" horiz-adv-x="1386" d="M1335 0q-2 -2 -14 0q-156 6 -350 0h-10q57 18 57 86q0 41 -23 96l-110 277h-467l-94 -238q-33 -88 -33 -141q0 -66 49 -80h-2q-182 4 -336 0h-2q115 25 197 201q129 280 462 1091q187 -415 525 -1128q71 -139 151 -164zM850 539l-211 475l-190 -475h401zM1021 1811 q-1 -71 -55 -119q-44 -40 -109 -57l1 -39q0 -20 -18 -32t-87 -41q12 36 12 74v59q77 8 115 53q34 40 34 91q0 26 -11 47q-32 62 -102 62q-47 0 -83 -29q-37 -30 -37 -88q-32 9 -30 23q7 74 65 117q52 38 123 38q74 0 125 -40q58 -45 57 -119zM1000 1296q-84 -14 -123 -14 q-59 0 -82 23l-143 155l-143 -155q-23 -23 -82 -23q-37 0 -123 14q43 21 96 62l252 198l252 -198q53 -41 96 -62z" />
<glyph unicode="&#x1eab;" horiz-adv-x="1386" d="M1335 0q-2 -2 -14 0q-156 6 -350 0h-10q57 18 57 86q0 41 -23 96l-110 277h-467l-94 -238q-33 -88 -33 -141q0 -66 49 -80h-2q-182 4 -336 0h-2q115 25 197 201q129 280 462 1091q187 -415 525 -1128q71 -139 151 -164zM850 539l-211 475l-190 -475h401zM1077 1728 q-68 -166 -178 -166q-16 0 -31 4l-237 56q-39 8 -72 8q-86 0 -119 -62q-2 -2 -2 0q35 99 102 148q56 39 105 29l266 -58q33 -6 62 -6q71 0 102 47h2zM1000 1296q-84 -14 -123 -14q-59 0 -82 23l-143 155l-143 -155q-23 -23 -82 -23q-37 0 -123 14q43 21 96 62l252 198 l252 -198q53 -41 96 -62z" />
<glyph unicode="&#x1ead;" horiz-adv-x="1386" d="M1335 0q-2 -2 -14 0q-156 6 -350 0h-10q57 18 57 86q0 41 -23 96l-110 277h-467l-94 -238q-33 -88 -33 -141q0 -66 49 -80h-2q-182 4 -336 0h-2q115 25 197 201q129 280 462 1091q187 -415 525 -1128q71 -139 151 -164zM850 539l-211 475l-190 -475h401zM770 -231 q0 -47 -35.5 -80.5t-83.5 -33.5q-47 0 -81.5 33.5t-34.5 80.5q0 50 34.5 84.5t81.5 34.5q48 0 83.5 -34.5t35.5 -84.5zM1000 1296q-84 -14 -123 -14q-59 0 -82 23l-143 155l-143 -155q-23 -23 -82 -23q-37 0 -123 14q43 21 96 62l252 198l252 -198q53 -41 96 -62z" />
<glyph unicode="&#x103;" horiz-adv-x="1386" d="M1335 0q-2 -2 -14 0q-156 6 -350 0h-10q57 18 57 86q0 41 -23 96l-110 277h-467l-94 -238q-33 -88 -33 -141q0 -66 49 -80h-2q-182 4 -336 0h-2q115 25 197 201q129 280 462 1091q187 -415 525 -1128q71 -139 151 -164zM850 539l-211 475l-190 -475h401zM902 1447 q-248 -250 -504 0q-53 41 -96 62q86 14 123 14q59 0 81 -22q145 -113 287 0q23 22 82 22q39 0 123 -14q-43 -21 -96 -62z" />
<glyph unicode="&#x1eb1;" horiz-adv-x="1386" d="M1335 0q-2 -2 -14 0q-156 6 -350 0h-10q57 18 57 86q0 41 -23 96l-110 277h-467l-94 -238q-33 -88 -33 -141q0 -66 49 -80h-2q-182 4 -336 0h-2q115 25 197 201q129 280 462 1091q187 -415 525 -1128q71 -139 151 -164zM850 539l-211 475l-190 -475h401zM754 1529 q-34 4 -118 18q-21 4 -49 37q-58 72 -170 205q-27 27 -27 25l-2 2l184 -27q39 -6 55 -37l97 -182q4 -6 17 -22.5t13 -18.5zM902 1447q-248 -250 -504 0q-53 41 -96 62q86 14 123 14q59 0 81 -22q145 -113 287 0q23 22 82 22q39 0 123 -14q-43 -21 -96 -62z" />
<glyph unicode="&#x1eaf;" horiz-adv-x="1386" d="M1335 0q-2 -2 -14 0q-156 6 -350 0h-10q57 18 57 86q0 41 -23 96l-110 277h-467l-94 -238q-33 -88 -33 -141q0 -66 49 -80h-2q-182 4 -336 0h-2q115 25 197 201q129 280 462 1091q187 -415 525 -1128q71 -139 151 -164zM850 539l-211 475l-190 -475h401zM601 1547.5 q13 16.5 18 22.5l96 182q16 31 55 37l184 27l-2 -2q0 2 -26 -25q-113 -133 -170 -205q-29 -33 -49 -37q-84 -14 -119 -18q0 2 13 18.5zM902 1447q-248 -250 -504 0q-53 41 -96 62q86 14 123 14q59 0 81 -22q145 -113 287 0q23 22 82 22q39 0 123 -14q-43 -21 -96 -62z" />
<glyph unicode="&#x1eb3;" horiz-adv-x="1386" d="M1335 0q-2 -2 -14 0q-156 6 -350 0h-10q57 18 57 86q0 41 -23 96l-110 277h-467l-94 -238q-33 -88 -33 -141q0 -66 49 -80h-2q-182 4 -336 0h-2q115 25 197 201q129 280 462 1091q187 -415 525 -1128q71 -139 151 -164zM850 539l-211 475l-190 -475h401zM879 1811 q-1 -71 -55 -119q-44 -40 -109 -57l1 -39q0 -20 -18 -32t-87 -41q12 36 12 74v59q77 8 115 53q34 40 34 91q0 26 -11 47q-32 62 -102 62q-47 0 -83 -29q-37 -30 -37 -88q-32 9 -30 23q7 74 65 117q52 38 123 38q74 0 125 -40q58 -45 57 -119zM902 1447q-248 -250 -504 0 q-53 41 -96 62q86 14 123 14q59 0 81 -22q145 -113 287 0q23 22 82 22q39 0 123 -14q-43 -21 -96 -62z" />
<glyph unicode="&#x1eb5;" horiz-adv-x="1386" d="M1335 0q-2 -2 -14 0q-156 6 -350 0h-10q57 18 57 86q0 41 -23 96l-110 277h-467l-94 -238q-33 -88 -33 -141q0 -66 49 -80h-2q-182 4 -336 0h-2q115 25 197 201q129 280 462 1091q187 -415 525 -1128q71 -139 151 -164zM850 539l-211 475l-190 -475h401zM1077 1728 q-68 -166 -178 -166q-16 0 -31 4l-237 56q-39 8 -72 8q-86 0 -119 -62q-2 -2 -2 0q35 99 102 148q56 39 105 29l266 -58q33 -6 62 -6q71 0 102 47h2zM902 1447q-248 -250 -504 0q-53 41 -96 62q86 14 123 14q59 0 81 -22q145 -113 287 0q23 22 82 22q39 0 123 -14 q-43 -21 -96 -62z" />
<glyph unicode="&#x1eb7;" horiz-adv-x="1386" d="M1335 0q-2 -2 -14 0q-156 6 -350 0h-10q57 18 57 86q0 41 -23 96l-110 277h-467l-94 -238q-33 -88 -33 -141q0 -66 49 -80h-2q-182 4 -336 0h-2q115 25 197 201q129 280 462 1091q187 -415 525 -1128q71 -139 151 -164zM850 539l-211 475l-190 -475h401zM770 -231 q0 -47 -35.5 -80.5t-83.5 -33.5q-47 0 -81.5 33.5t-34.5 80.5q0 50 34.5 84.5t81.5 34.5q48 0 83.5 -34.5t35.5 -84.5zM902 1447q-248 -250 -504 0q-53 41 -96 62q86 14 123 14q59 0 81 -22q145 -113 287 0q23 22 82 22q39 0 123 -14q-43 -21 -96 -62z" />
<glyph unicode="&#xe8;" horiz-adv-x="1060" d="M1016 350q6 -6 -20.5 -98t-43.5 -127q-30 -72 -47 -92q-26 -33 -75 -33h-830q-4 0 -4 2q127 23 131 176q12 342 2 889q-4 141 -125 166v2h744q129 0 153 4q-14 -104 -4 -276q-2 -2 -4 -5q0 86 -90 146q-76 49 -160 51q-196 4 -340 -2q-22 0 -22 -14l-4 -441h399 q104 0 151 35q-12 -90 -4 -254q2 -4 -2 -6q-2 72 -65 111q-47 30 -109 32q-221 2 -370 0l2 -438q0 -92 82 -98q202 -12 323 12q289 60 332 258zM631 1338q-35 4 -119 18q-21 4 -49 37q-58 72 -170 205q-27 27 -27 25l-2 2l184 -27q39 -6 56 -37l96 -182q4 -6 17.5 -22.5 t13.5 -18.5z" />
<glyph unicode="&#xe9;" horiz-adv-x="1060" d="M1016 350q6 -6 -20.5 -98t-43.5 -127q-30 -72 -47 -92q-26 -33 -75 -33h-830q-4 0 -4 2q127 23 131 176q12 342 2 889q-4 141 -125 166v2h744q129 0 153 4q-14 -104 -4 -276q-2 -2 -4 -5q0 86 -90 146q-76 49 -160 51q-196 4 -340 -2q-22 0 -22 -14l-4 -441h399 q104 0 151 35q-12 -90 -4 -254q2 -4 -2 -6q-2 72 -65 111q-47 30 -109 32q-221 2 -370 0l2 -438q0 -92 82 -98q202 -12 323 12q289 60 332 258zM420.5 1356.5q13.5 16.5 17.5 22.5l96 182q16 31 55 37l185 27l-2 -2q0 2 -27 -25q-113 -133 -170 -205q-29 -33 -49 -37 q-84 -14 -119 -18q0 2 13.5 18.5z" />
<glyph unicode="&#x1ebb;" horiz-adv-x="1060" d="M1016 350q6 -6 -20.5 -98t-43.5 -127q-30 -72 -47 -92q-26 -33 -75 -33h-830q-4 0 -4 2q127 23 131 176q12 342 2 889q-4 141 -125 166v2h744q129 0 153 4q-14 -104 -4 -276q-2 -2 -4 -5q0 86 -90 146q-76 49 -160 51q-196 4 -340 -2q-22 0 -22 -14l-4 -441h399 q104 0 151 35q-12 -90 -4 -254q2 -4 -2 -6q-2 72 -65 111q-47 30 -109 32q-221 2 -370 0l2 -438q0 -92 82 -98q202 -12 323 12q289 60 332 258zM705 1611q-1 -71 -55 -119q-44 -40 -109 -57l1 -39q0 -20 -18 -32t-87 -41q12 36 12 74v59q77 8 115 53q34 40 34 91 q0 26 -11 47q-32 62 -102 62q-47 0 -83 -29q-37 -30 -37 -88q-32 9 -30 23q7 74 66 117q51 38 122 38q74 0 125 -40q58 -45 57 -119z" />
<glyph unicode="&#x1ebd;" horiz-adv-x="1060" d="M1016 350q6 -6 -20.5 -98t-43.5 -127q-30 -72 -47 -92q-26 -33 -75 -33h-830q-4 0 -4 2q127 23 131 176q12 342 2 889q-4 141 -125 166v2h744q129 0 153 4q-14 -104 -4 -276q-2 -2 -4 -5q0 86 -90 146q-76 49 -160 51q-196 4 -340 -2q-22 0 -22 -14l-4 -441h399 q104 0 151 35q-12 -90 -4 -254q2 -4 -2 -6q-2 72 -65 111q-47 30 -109 32q-221 2 -370 0l2 -438q0 -92 82 -98q202 -12 323 12q289 60 332 258zM850 1529q-67 -166 -178 -166q-16 0 -31 4l-237 56q-39 8 -72 8q-86 0 -119 -62q-2 -2 -2 0q35 99 103 148q55 39 104 29 l266 -58q33 -6 62 -6q71 0 102 47h2z" />
<glyph unicode="&#x1eb9;" horiz-adv-x="1060" d="M1016 350q6 -6 -20.5 -98t-43.5 -127q-30 -72 -47 -92q-26 -33 -75 -33h-830q-4 0 -4 2q127 23 131 176q12 342 2 889q-4 141 -125 166v2h744q129 0 153 4q-14 -104 -4 -276q-2 -2 -4 -5q0 86 -90 146q-76 49 -160 51q-196 4 -340 -2q-22 0 -22 -14l-4 -441h399 q104 0 151 35q-12 -90 -4 -254q2 -4 -2 -6q-2 72 -65 111q-47 30 -109 32q-221 2 -370 0l2 -438q0 -92 82 -98q202 -12 323 12q289 60 332 258zM589 -231q0 -47 -35.5 -80.5t-82.5 -33.5q-48 0 -82.5 33.5t-34.5 80.5q0 50 34.5 84.5t82.5 34.5q47 0 82.5 -34.5t35.5 -84.5z " />
<glyph unicode="&#xea;" horiz-adv-x="1060" d="M1016 350q6 -6 -20.5 -98t-43.5 -127q-30 -72 -47 -92q-26 -33 -75 -33h-830q-4 0 -4 2q127 23 131 176q12 342 2 889q-4 141 -125 166v2h744q129 0 153 4q-14 -104 -4 -276q-2 -2 -4 -5q0 86 -90 146q-76 49 -160 51q-196 4 -340 -2q-22 0 -22 -14l-4 -441h399 q104 0 151 35q-12 -90 -4 -254q2 -4 -2 -6q-2 72 -65 111q-47 30 -109 32q-221 2 -370 0l2 -438q0 -92 82 -98q202 -12 323 12q289 60 332 258zM857 1334q-84 -14 -123 -14q-59 0 -82 23l-143 155l-144 -155q-22 -23 -82 -23q-36 0 -122 14q43 21 96 62l252 198l252 -198 q53 -41 96 -62z" />
<glyph unicode="&#x1ec1;" horiz-adv-x="1060" d="M1016 350q6 -6 -20.5 -98t-43.5 -127q-30 -72 -47 -92q-26 -33 -75 -33h-830q-4 0 -4 2q127 23 131 176q12 342 2 889q-4 141 -125 166v2h744q129 0 153 4q-14 -104 -4 -276q-2 -2 -4 -5q0 86 -90 146q-76 49 -160 51q-196 4 -340 -2q-22 0 -22 -14l-4 -441h399 q104 0 151 35q-12 -90 -4 -254q2 -4 -2 -6q-2 72 -65 111q-47 30 -109 32q-221 2 -370 0l2 -438q0 -92 82 -98q202 -12 323 12q289 60 332 258zM764 1528q-35 4 -119 18q-21 4 -49 37q-58 72 -170 205q-27 27 -27 25l-2 2l184 -27q39 -6 56 -37l96 -182q4 -6 17.5 -22.5 t13.5 -18.5zM857 1334q-84 -14 -123 -14q-59 0 -82 23l-143 155l-144 -155q-22 -23 -82 -23q-36 0 -122 14q43 21 96 62l252 198l252 -198q53 -41 96 -62z" />
<glyph unicode="&#x1ebf;" horiz-adv-x="1060" d="M1016 350q6 -6 -20.5 -98t-43.5 -127q-30 -72 -47 -92q-26 -33 -75 -33h-830q-4 0 -4 2q127 23 131 176q12 342 2 889q-4 141 -125 166v2h744q129 0 153 4q-14 -104 -4 -276q-2 -2 -4 -5q0 86 -90 146q-76 49 -160 51q-196 4 -340 -2q-22 0 -22 -14l-4 -441h399 q104 0 151 35q-12 -90 -4 -254q2 -4 -2 -6q-2 72 -65 111q-47 30 -109 32q-221 2 -370 0l2 -438q0 -92 82 -98q202 -12 323 12q289 60 332 258zM629.5 1556.5q13.5 16.5 17.5 22.5l96 182q16 31 55 37l185 27l-2 -2q0 2 -27 -25q-113 -133 -170 -205q-29 -33 -49 -37 q-84 -14 -119 -18q0 2 13.5 18.5zM857 1334q-84 -14 -123 -14q-59 0 -82 23l-143 155l-144 -155q-22 -23 -82 -23q-36 0 -122 14q43 21 96 62l252 198l252 -198q53 -41 96 -62z" />
<glyph unicode="&#x1ec3;" horiz-adv-x="1060" d="M1016 350q6 -6 -20.5 -98t-43.5 -127q-30 -72 -47 -92q-26 -33 -75 -33h-830q-4 0 -4 2q127 23 131 176q12 342 2 889q-4 141 -125 166v2h744q129 0 153 4q-14 -104 -4 -276q-2 -2 -4 -5q0 86 -90 146q-76 49 -160 51q-196 4 -340 -2q-22 0 -22 -14l-4 -441h399 q104 0 151 35q-12 -90 -4 -254q2 -4 -2 -6q-2 72 -65 111q-47 30 -109 32q-221 2 -370 0l2 -438q0 -92 82 -98q202 -12 323 12q289 60 332 258zM896 1820q-1 -71 -55 -119q-44 -40 -109 -57l1 -39q0 -20 -18 -32t-87 -41q12 36 12 74v59q77 8 115 53q34 40 34 91 q0 26 -11 47q-32 62 -102 62q-47 0 -83 -29q-37 -30 -37 -88q-32 9 -30 23q7 74 66 117q51 38 122 38q74 0 125 -40q58 -45 57 -119zM857 1334q-84 -14 -123 -14q-59 0 -82 23l-143 155l-144 -155q-22 -23 -82 -23q-36 0 -122 14q43 21 96 62l252 198l252 -198 q53 -41 96 -62z" />
<glyph unicode="&#x1ec5;" horiz-adv-x="1060" d="M1016 350q6 -6 -20.5 -98t-43.5 -127q-30 -72 -47 -92q-26 -33 -75 -33h-830q-4 0 -4 2q127 23 131 176q12 342 2 889q-4 141 -125 166v2h744q129 0 153 4q-14 -104 -4 -276q-2 -2 -4 -5q0 86 -90 146q-76 49 -160 51q-196 4 -340 -2q-22 0 -22 -14l-4 -441h399 q104 0 151 35q-12 -90 -4 -254q2 -4 -2 -6q-2 72 -65 111q-47 30 -109 32q-221 2 -370 0l2 -438q0 -92 82 -98q202 -12 323 12q289 60 332 258zM945 1739q-67 -166 -178 -166q-16 0 -31 4l-237 56q-39 8 -72 8q-86 0 -119 -62q-2 -2 -2 0q35 99 103 148q55 39 104 29 l266 -58q33 -6 62 -6q71 0 102 47h2zM857 1334q-84 -14 -123 -14q-59 0 -82 23l-143 155l-144 -155q-22 -23 -82 -23q-36 0 -122 14q43 21 96 62l252 198l252 -198q53 -41 96 -62z" />
<glyph unicode="&#x1ec7;" horiz-adv-x="1060" d="M1016 350q6 -6 -20.5 -98t-43.5 -127q-30 -72 -47 -92q-26 -33 -75 -33h-830q-4 0 -4 2q127 23 131 176q12 342 2 889q-4 141 -125 166v2h744q129 0 153 4q-14 -104 -4 -276q-2 -2 -4 -5q0 86 -90 146q-76 49 -160 51q-196 4 -340 -2q-22 0 -22 -14l-4 -441h399 q104 0 151 35q-12 -90 -4 -254q2 -4 -2 -6q-2 72 -65 111q-47 30 -109 32q-221 2 -370 0l2 -438q0 -92 82 -98q202 -12 323 12q289 60 332 258zM589 -231q0 -47 -35.5 -80.5t-82.5 -33.5q-48 0 -82.5 33.5t-34.5 80.5q0 50 34.5 84.5t82.5 34.5q47 0 82.5 -34.5t35.5 -84.5z M857 1334q-84 -14 -123 -14q-59 0 -82 23l-143 155l-144 -155q-22 -23 -82 -23q-36 0 -122 14q43 21 96 62l252 198l252 -198q53 -41 96 -62z" />
<glyph unicode="&#xec;" horiz-adv-x="454" d="M418 -2q0 -2 -4 -2q-205 8 -410 0q-4 0 -4 2q127 25 131 178q12 361 0 889q-2 141 -123 166v2q101 -4 201 -4t201 4q2 0 2 -2q-123 -25 -125 -166q-10 -547 0 -889q6 -153 131 -178zM326 1338q-35 4 -119 18q-21 4 -49 37q-58 72 -170 205q-27 27 -27 25l-2 2l184 -27 q39 -6 56 -37l96 -182q4 -6 17.5 -22.5t13.5 -18.5z" />
<glyph unicode="&#xed;" horiz-adv-x="454" d="M418 -2q0 -2 -4 -2q-205 8 -410 0q-4 0 -4 2q127 25 131 178q12 361 0 889q-2 141 -123 166v2q101 -4 201 -4t201 4q2 0 2 -2q-123 -25 -125 -166q-11 -547 0 -889q6 -153 131 -178zM125 1356.5q13 16.5 18 22.5l96 182q16 31 55 37l184 27l-2 -2q0 2 -26 -25 q-113 -133 -170 -205q-29 -33 -49 -37q-84 -14 -119 -18q0 2 13 18.5z" />
<glyph unicode="&#x1ec9;" horiz-adv-x="454" d="M418 -2q0 -2 -4 -2q-205 8 -410 0q-4 0 -4 2q127 25 131 178q12 361 0 889q-2 141 -123 166v2q101 -4 201 -4t201 4q2 0 2 -2q-123 -25 -125 -166q-11 -547 0 -889q6 -153 131 -178zM410 1611q-1 -71 -55 -119q-44 -40 -109 -57l1 -39q0 -20 -18 -32t-87 -41q12 36 12 74 v59q77 8 115 53q34 40 34 91q0 26 -11 47q-32 62 -102 62q-47 0 -83 -29q-37 -30 -37 -88q-32 9 -30 23q7 74 65 117q52 38 123 38q74 0 125 -40q58 -45 57 -119z" />
<glyph unicode="&#x129;" horiz-adv-x="454" d="M418 -2q0 -2 -4 -2q-205 8 -410 0q-4 0 -4 2q127 25 131 178q12 361 0 889q-2 141 -123 166v2q100 -4 201 -4q100 0 201 4q2 0 2 -2q-123 -25 -125 -166q-11 -547 0 -889q6 -153 131 -178zM555 1529q-68 -166 -178 -166q-17 0 -31 4l-237 56q-39 8 -72 8q-86 0 -119 -62 q-2 -2 -2 0q35 99 102 148q56 39 105 29l266 -58q33 -6 62 -6q71 0 102 47h2z" />
<glyph unicode="&#x1ecb;" horiz-adv-x="454" d="M418 -2q0 -2 -4 -2q-205 8 -410 0q-4 0 -4 2q127 25 131 178q12 361 0 889q-2 141 -123 166v2q101 -4 201 -4t201 4q2 0 2 -2q-123 -25 -125 -166q-11 -547 0 -889q6 -153 131 -178zM323 -231q0 -47 -35.5 -80.5t-83.5 -33.5q-47 0 -81.5 33.5t-34.5 80.5q0 50 34.5 84.5 t81.5 34.5q48 0 83.5 -34.5t35.5 -84.5z" />
<glyph unicode="&#xf2;" horiz-adv-x="1347" d="M1260 618q0 -262 -184.5 -449t-444.5 -187v0q-260 0 -445.5 187t-185.5 449q0 265 184.5 451t446.5 186q260 0 444.5 -186t184.5 -451zM1083 674q-26 217 -163.5 363.5t-315.5 146.5q-201 0 -323 -176q-111 -158 -111 -367q0 -219 133 -395q143 -193 359 -193 q198 0 319 166q109 150 109 356q0 50 -7 99zM715 1338q-34 4 -118 18q-21 4 -49 37q-58 72 -170 205q-27 27 -27 25l-2 2l184 -27q39 -6 55 -37l97 -182q4 -6 17 -22.5t13 -18.5z" />
<glyph unicode="&#xf3;" horiz-adv-x="1347" d="M1260 618q0 -262 -184.5 -449t-444.5 -187v0q-260 0 -445.5 187t-185.5 449q0 265 184.5 451t446.5 186q260 0 444.5 -186t184.5 -451zM1083 674q-26 217 -163.5 363.5t-315.5 146.5q-201 0 -323 -176q-111 -158 -111 -367q0 -219 133 -395q143 -193 359 -193 q198 0 319 166q109 150 109 356q0 50 -7 99zM449 1356.5q13 16.5 18 22.5l96 182q16 31 55 37l184 27l-2 -2q0 2 -26 -25q-113 -133 -170 -205q-29 -33 -49 -37q-84 -14 -119 -18q0 2 13 18.5z" />
<glyph unicode="&#x1ecf;" horiz-adv-x="1347" d="M1260 618q0 -262 -184.5 -449t-444.5 -187v0q-260 0 -445.5 187t-185.5 449q0 265 184.5 451t446.5 186q260 0 444.5 -186t184.5 -451zM1083 674q-26 217 -163.5 363.5t-315.5 146.5q-201 0 -323 -176q-111 -158 -111 -367q0 -219 133 -395q143 -193 359 -193 q198 0 319 166q109 150 109 356q0 50 -7 99zM838 1611q-1 -71 -55 -119q-44 -40 -109 -57l1 -39q0 -20 -18 -32t-87 -41q12 36 12 74v59q77 8 115 53q34 40 34 91q0 26 -11 47q-32 62 -102 62q-47 0 -83 -29q-37 -30 -37 -88q-32 9 -30 23q7 74 65 117q52 38 123 38 q74 0 125 -40q58 -45 57 -119z" />
<glyph unicode="&#xf5;" horiz-adv-x="1347" d="M1260 618q0 -262 -184.5 -449t-444.5 -187v0q-260 0 -445.5 187t-185.5 449q0 265 184.5 451t446.5 186q260 0 444.5 -186t184.5 -451zM1083 674q-26 217 -163.5 363.5t-315.5 146.5q-201 0 -323 -176q-111 -158 -111 -367q0 -219 133 -395q143 -193 359 -193 q198 0 319 166q109 150 109 356q0 50 -7 99zM973 1529q-68 -166 -178 -166q-16 0 -31 4l-237 56q-39 8 -72 8q-86 0 -119 -62q-2 -2 -2 0q35 99 102 148q56 39 105 29l266 -58q33 -6 62 -6q71 0 102 47h2z" />
<glyph unicode="&#x1ecd;" horiz-adv-x="1347" d="M1260 618q0 -262 -184.5 -449t-444.5 -187v0q-260 0 -445.5 187t-185.5 449q0 265 184.5 451t446.5 186q260 0 444.5 -186t184.5 -451zM1083 674q-26 217 -163.5 363.5t-315.5 146.5q-201 0 -323 -176q-111 -158 -111 -367q0 -219 133 -395q143 -193 359 -193 q198 0 319 166q109 150 109 356q0 50 -7 99zM748 -231q0 -47 -36 -80.5t-83 -33.5t-82 33.5t-35 80.5q0 50 35 84.5t82 34.5t83 -34.5t36 -84.5z" />
<glyph unicode="&#xf4;" horiz-adv-x="1347" d="M1260 618q0 -262 -184.5 -449t-444.5 -187v0q-260 0 -445.5 187t-185.5 449q0 265 184.5 451t446.5 186q260 0 444.5 -186t184.5 -451zM1083 674q-26 217 -163.5 363.5t-315.5 146.5q-201 0 -323 -176q-111 -158 -111 -367q0 -219 133 -395q143 -193 359 -193 q198 0 319 166q109 150 109 356q0 50 -7 99zM978 1324q-84 -14 -123 -14q-59 0 -82 23l-143 155l-144 -155q-22 -23 -82 -23q-36 0 -122 14q43 21 96 62l252 198l252 -198q53 -41 96 -62z" />
<glyph unicode="&#x1ed3;" horiz-adv-x="1347" d="M1260 618q0 -262 -184.5 -449t-444.5 -187v0q-260 0 -445.5 187t-185.5 449q0 265 184.5 451t446.5 186q260 0 444.5 -186t184.5 -451zM1083 674q-26 217 -163.5 363.5t-315.5 146.5q-201 0 -323 -176q-111 -158 -111 -367q0 -219 133 -395q143 -193 359 -193 q198 0 319 166q109 150 109 356q0 50 -7 99zM905 1510q-34 4 -118 18q-21 4 -49 37q-58 72 -170 205q-27 27 -27 25l-2 2l184 -27q39 -6 55 -37l97 -182q4 -6 17 -22.5t13 -18.5zM978 1324q-84 -14 -123 -14q-59 0 -82 23l-143 155l-144 -155q-22 -23 -82 -23q-36 0 -122 14 q43 21 96 62l252 198l252 -198q53 -41 96 -62z" />
<glyph unicode="&#x1ed1;" horiz-adv-x="1347" d="M1260 618q0 -262 -184.5 -449t-444.5 -187v0q-260 0 -445.5 187t-185.5 449q0 265 184.5 451t446.5 186q260 0 444.5 -186t184.5 -451zM1083 674q-26 217 -163.5 363.5t-315.5 146.5q-201 0 -323 -176q-111 -158 -111 -367q0 -219 133 -395q143 -193 359 -193 q198 0 319 166q109 150 109 356q0 50 -7 99zM773 1547.5q13 16.5 18 22.5l96 182q16 31 55 37l184 27l-2 -2q0 2 -26 -25q-113 -133 -170 -205q-29 -33 -49 -37q-84 -14 -119 -18q0 2 13 18.5zM978 1324q-84 -14 -123 -14q-59 0 -82 23l-143 155l-144 -155q-22 -23 -82 -23 q-36 0 -122 14q43 21 96 62l252 198l252 -198q53 -41 96 -62z" />
<glyph unicode="&#x1ed5;" horiz-adv-x="1347" d="M1260 618q0 -262 -184.5 -449t-444.5 -187v0q-260 0 -445.5 187t-185.5 449q0 265 184.5 451t446.5 186q260 0 444.5 -186t184.5 -451zM1083 674q-26 217 -163.5 363.5t-315.5 146.5q-201 0 -323 -176q-111 -158 -111 -367q0 -219 133 -395q143 -193 359 -193 q198 0 319 166q109 150 109 356q0 50 -7 99zM1018 1811q-1 -71 -55 -119q-44 -40 -109 -57l1 -39q0 -20 -18 -32t-87 -41q12 36 12 74v59q77 8 115 53q34 40 34 91q0 26 -11 47q-32 62 -102 62q-47 0 -83 -29q-37 -30 -37 -88q-32 9 -30 23q7 74 65 117q52 38 123 38 q74 0 125 -40q58 -45 57 -119zM978 1324q-84 -14 -123 -14q-59 0 -82 23l-143 155l-144 -155q-22 -23 -82 -23q-36 0 -122 14q43 21 96 62l252 198l252 -198q53 -41 96 -62z" />
<glyph unicode="&#x1ed7;" horiz-adv-x="1347" d="M1260 618q0 -262 -184.5 -449t-444.5 -187v0q-260 0 -445.5 187t-185.5 449q0 265 184.5 451t446.5 186q260 0 444.5 -186t184.5 -451zM1083 674q-26 217 -163.5 363.5t-315.5 146.5q-201 0 -323 -176q-111 -158 -111 -367q0 -219 133 -395q143 -193 359 -193 q198 0 319 166q109 150 109 356q0 50 -7 99zM1068 1719q-68 -166 -178 -166q-16 0 -31 4l-237 56q-39 8 -72 8q-86 0 -119 -62q-2 -2 -2 0q35 99 102 148q56 39 105 29l266 -58q33 -6 62 -6q71 0 102 47h2zM978 1324q-84 -14 -123 -14q-59 0 -82 23l-143 155l-144 -155 q-22 -23 -82 -23q-36 0 -122 14q43 21 96 62l252 198l252 -198q53 -41 96 -62z" />
<glyph unicode="&#x1ed9;" horiz-adv-x="1347" d="M1260 618q0 -262 -184.5 -449t-444.5 -187v0q-260 0 -445.5 187t-185.5 449q0 265 184.5 451t446.5 186q260 0 444.5 -186t184.5 -451zM1083 674q-26 217 -163.5 363.5t-315.5 146.5q-201 0 -323 -176q-111 -158 -111 -367q0 -219 133 -395q143 -193 359 -193 q198 0 319 166q109 150 109 356q0 50 -7 99zM748 -231q0 -47 -36 -80.5t-83 -33.5t-82 33.5t-35 80.5q0 50 35 84.5t82 34.5t83 -34.5t36 -84.5zM978 1324q-84 -14 -123 -14q-59 0 -82 23l-143 155l-144 -155q-22 -23 -82 -23q-36 0 -122 14q43 21 96 62l252 198l252 -198 q53 -41 96 -62z" />
<glyph unicode="&#xf9;" horiz-adv-x="1239" d="M1241 4q-2 -2 -6 -2q-51 4 -275 0q2 10 7 160q-142 -176 -381 -174q-193 0 -324 121q-137 127 -139 329l-2 631q-2 143 -117 168h2q98 -4 195 -4q96 0 196 4v0q-121 -25 -125 -168v-596q0 -188 107 -305q98 -107 237 -107q109 0 199 68q100 70 156 203q6 395 0 737 q-4 141 -136 168h3q196 -8 393 0h2q-113 -23 -117 -168q-10 -547 2 -889q4 -153 123 -176zM715 1338q-34 4 -118 18q-21 4 -50 37q-57 72 -170 205q-26 27 -26 25l-2 2l184 -27q39 -6 55 -37l97 -182q4 -6 17 -22.5t13 -18.5z" />
<glyph unicode="&#xfa;" horiz-adv-x="1239" d="M1241 4q-2 -2 -6 -2q-51 4 -275 0q2 10 7 160q-142 -176 -381 -174q-193 0 -324 121q-137 127 -139 329l-2 631q-2 143 -117 168h2q98 -4 195 -4q96 0 196 4v0q-121 -25 -125 -168v-596q0 -188 107 -305q98 -107 237 -107q109 0 199 68q100 70 156 203q6 395 0 737 q-4 141 -136 168h3q196 -8 393 0h2q-113 -23 -117 -168q-10 -547 2 -889q4 -153 123 -176zM535 1356.5q13 16.5 17 22.5l97 182q16 31 55 37l184 27l-2 -2q0 2 -26 -25q-113 -133 -170 -205q-29 -33 -49 -37q-84 -14 -119 -18q0 2 13 18.5z" />
<glyph unicode="&#x1ee7;" horiz-adv-x="1239" d="M1241 4q-2 -2 -6 -2q-51 4 -275 0q2 10 7 160q-142 -176 -381 -174q-193 0 -324 121q-137 127 -139 329l-2 631q-2 143 -117 168h2q98 -4 195 -4q96 0 196 4v0q-121 -25 -125 -168v-596q0 -188 107 -305q98 -107 237 -107q109 0 199 68q100 70 156 203q6 395 0 737 q-4 141 -136 168h3q196 -8 393 0h2q-113 -23 -117 -168q-10 -547 2 -889q4 -153 123 -176zM829 1611q-1 -71 -55 -119q-44 -40 -109 -57v-39q0 -20 -17.5 -32t-86.5 -41q12 36 12 74v59q77 8 115 53q33 40 33 91q0 26 -10 47q-32 62 -102 62q-47 0 -83 -29q-37 -30 -37 -88 q-32 9 -30 23q7 74 65 117q52 38 123 38q74 0 125 -40q58 -45 57 -119z" />
<glyph unicode="&#x169;" horiz-adv-x="1239" d="M1241 4q-2 -2 -6 -2q-51 4 -275 0q2 10 7 160q-142 -176 -381 -174q-193 0 -324 121q-137 127 -139 329l-2 631q-2 143 -117 168h2q98 -4 195 -4q96 0 196 4v0q-121 -25 -125 -168v-596q0 -188 107 -305q98 -107 237 -107q109 0 199 68q100 70 156 203q6 395 0 737 q-4 141 -136 168h3q196 -8 393 0h2q-113 -23 -117 -168q-10 -547 2 -889q4 -153 123 -176zM965 1529q-68 -166 -178 -166q-17 0 -31 4l-237 56q-39 8 -72 8q-86 0 -119 -62q-2 -2 -2 0q35 99 102 148q56 39 105 29l266 -58q33 -6 62 -6q71 0 102 47h2z" />
<glyph unicode="&#x1ee5;" horiz-adv-x="1239" d="M1241 4q-2 -2 -6 -2q-51 4 -275 0q2 10 7 160q-142 -176 -381 -174q-193 0 -324 121q-137 127 -139 329l-2 631q-2 143 -117 168h2q98 -4 195 -4q96 0 196 4v0q-121 -25 -125 -168v-596q0 -188 107 -305q98 -107 237 -107q109 0 199 68q100 70 156 203q6 395 0 737 q-4 141 -136 168h3q196 -8 393 0h2q-113 -23 -117 -168q-10 -547 2 -889q4 -153 123 -176zM741 -231q0 -47 -36 -80.5t-83 -33.5t-81.5 33.5t-34.5 80.5q0 50 34.5 84.5t81.5 34.5t83 -34.5t36 -84.5z" />
<glyph unicode="&#x1b0;" horiz-adv-x="1239" d="M1145 1181q-27 -42 -29 -112q-10 -547 2 -889q4 -153 123 -176q-2 -2 -6 -2q-51 4 -274 0q2 10 6 160q-142 -176 -381 -174q-193 0 -324 121q-137 127 -139 329l-2 631q-2 143 -117 168h2q98 -4 195 -4q96 0 196 4q-121 -25 -125 -168v-596q0 -188 107 -305 q98 -107 237 -107q109 0 199 68q100 70 156 203q6 395 0 737q-4 141 -135 168h2q156 -6 312 -3q16 17 24 31q-42 9 -69 44q-51 63 -6 130q20 30 53 44q56 22 104 -10q46 -30 52 -78.5t-24 -95.5q-23 -35 -53 -62h2q-1 0 -3 -1q-37 -33 -85 -55z" />
<glyph unicode="&#x1eeb;" horiz-adv-x="1239" d="M715 1338q-34 4 -118 18q-21 4 -49 37q-58 72 -170 205q-27 27 -27 25l-2 2l184 -27q39 -6 55 -37l97 -182q4 -6 17 -22.5t13 -18.5zM1145 1181q-27 -42 -29 -112q-10 -547 2 -889q4 -153 123 -176q-2 -2 -6 -2q-51 4 -274 0q2 10 6 160q-142 -176 -381 -174 q-193 0 -324 121q-137 127 -139 329l-2 631q-2 143 -117 168h2q98 -4 195 -4q96 0 196 4q-121 -25 -125 -168v-596q0 -188 107 -305q98 -107 237 -107q109 0 199 68q100 70 156 203q6 395 0 737q-4 141 -135 168h2q156 -6 312 -3q16 17 24 31q-42 9 -69 44q-51 63 -6 130 q20 30 53 44q56 22 104 -10q46 -30 52 -78.5t-24 -95.5q-23 -35 -53 -62h2q-1 0 -3 -1q-37 -33 -85 -55z" />
<glyph unicode="&#x1ee9;" horiz-adv-x="1239" d="M535 1356.5q13 16.5 18 22.5l96 182q16 31 55 37l184 27l-2 -2q0 2 -26 -25q-113 -133 -170 -205q-29 -33 -49 -37q-84 -14 -119 -18q0 2 13 18.5zM1145 1181q-27 -42 -29 -112q-10 -547 2 -889q4 -153 123 -176q-2 -2 -6 -2q-51 4 -274 0q2 10 6 160 q-142 -176 -381 -174q-193 0 -324 121q-137 127 -139 329l-2 631q-2 143 -117 168h2q98 -4 195 -4q96 0 196 4q-121 -25 -125 -168v-596q0 -188 107 -305q98 -107 237 -107q109 0 199 68q100 70 156 203q6 395 0 737q-4 141 -135 168h2q156 -6 312 -3q16 17 24 31 q-42 9 -69 44q-51 63 -6 130q20 30 53 44q56 22 104 -10q46 -30 52 -78.5t-24 -95.5q-23 -35 -53 -62h2q-1 0 -3 -1q-37 -33 -85 -55z" />
<glyph unicode="&#x1eed;" horiz-adv-x="1239" d="M829 1611q-1 -71 -55 -119q-44 -40 -109 -57l1 -39q0 -20 -18 -32t-87 -41q12 36 12 74v59q77 8 115 53q34 40 34 91q0 26 -11 47q-32 62 -102 62q-47 0 -83 -29q-37 -30 -37 -88q-32 9 -30 23q7 74 65 117q52 38 123 38q74 0 125 -40q58 -45 57 -119zM1145 1181 q-27 -42 -29 -112q-10 -547 2 -889q4 -153 123 -176q-2 -2 -6 -2q-51 4 -274 0q2 10 6 160q-142 -176 -381 -174q-193 0 -324 121q-137 127 -139 329l-2 631q-2 143 -117 168h2q98 -4 195 -4q96 0 196 4q-121 -25 -125 -168v-596q0 -188 107 -305q98 -107 237 -107 q109 0 199 68q100 70 156 203q6 395 0 737q-4 141 -135 168h2q156 -6 312 -3q16 17 24 31q-42 9 -69 44q-51 63 -6 130q20 30 53 44q56 22 104 -10q46 -30 52 -78.5t-24 -95.5q-23 -35 -53 -62h2q-1 0 -3 -1q-37 -33 -85 -55z" />
<glyph unicode="&#x1eef;" horiz-adv-x="1239" d="M965 1529q-68 -166 -178 -166q-16 0 -31 4l-237 56q-39 8 -72 8q-86 0 -119 -62q-2 -2 -2 0q35 99 102 148q56 39 105 29l266 -58q33 -6 62 -6q71 0 102 47h2zM1145 1181q-27 -42 -29 -112q-10 -547 2 -889q4 -153 123 -176q-2 -2 -6 -2q-51 4 -274 0q2 10 6 160 q-142 -176 -381 -174q-193 0 -324 121q-137 127 -139 329l-2 631q-2 143 -117 168h2q98 -4 195 -4q96 0 196 4q-121 -25 -125 -168v-596q0 -188 107 -305q98 -107 237 -107q109 0 199 68q100 70 156 203q6 395 0 737q-4 141 -135 168h2q156 -6 312 -3q16 17 24 31 q-42 9 -69 44q-51 63 -6 130q20 30 53 44q56 22 104 -10q46 -30 52 -78.5t-24 -95.5q-23 -35 -53 -62h2q-1 0 -3 -1q-37 -33 -85 -55z" />
<glyph unicode="&#x1ef1;" horiz-adv-x="1239" d="M741 -231q0 -47 -35.5 -80.5t-83.5 -33.5q-47 0 -81.5 33.5t-34.5 80.5q0 50 34.5 84.5t81.5 34.5q48 0 83.5 -34.5t35.5 -84.5zM1145 1181q-27 -42 -29 -112q-10 -547 2 -889q4 -153 123 -176q-2 -2 -6 -2q-51 4 -274 0q2 10 6 160q-142 -176 -381 -174q-193 0 -324 121 q-137 127 -139 329l-2 631q-2 143 -117 168h2q98 -4 195 -4q96 0 196 4q-121 -25 -125 -168v-596q0 -188 107 -305q98 -107 237 -107q109 0 199 68q100 70 156 203q6 395 0 737q-4 141 -135 168h2q156 -6 312 -3q16 17 24 31q-42 9 -69 44q-51 63 -6 130q20 30 53 44 q56 22 104 -10q46 -30 52 -78.5t-24 -95.5q-23 -35 -53 -62h2q-1 0 -3 -1q-37 -33 -85 -55z" />
<glyph unicode="&#x1a1;" horiz-adv-x="1347" d="M1260 618q0 -262 -184.5 -449t-444.5 -187v0q-260 0 -445.5 187t-185.5 449q0 265 184.5 451t446.5 186q260 0 444.5 -186t184.5 -451zM1083 674q-26 217 -163.5 363.5t-315.5 146.5q-201 0 -323 -176q-111 -158 -111 -367q0 -219 133 -395q143 -193 359 -193 q198 0 319 166q109 150 109 356q0 50 -7 99zM1094 1299q-52 -79 -144.5 -121t-103.5 -16q23 6 68 35q54 38 70 68q-42 9 -69 44q-51 63 -6 130q20 30 53 44q56 22 104 -10q46 -30 52 -78.5t-24 -95.5z" />
<glyph unicode="&#x1edd;" horiz-adv-x="1347" d="M1083 674q-26 217 -163.5 363.5t-315.5 146.5q-201 0 -323 -176q-111 -158 -111 -367q0 -219 133 -395q143 -193 359 -193q198 0 319 166q109 150 109 356q0 50 -7 99zM715 1338q-34 4 -118 18q-21 4 -49 37q-58 72 -170 205q-27 27 -27 25l-2 2l184 -27q39 -6 55 -37 l97 -182q4 -6 17 -22.5t13 -18.5zM941 1174q72 -42 135 -105q184 -186 184 -451q0 -262 -184.5 -449t-444.5 -187t-445.5 187t-185.5 449q0 265 184.5 451t446.5 186q151 0 276 -62q3 2 7 4q54 38 70 68q-42 9 -69 44q-51 63 -6 130q20 30 53 44q56 22 104 -10 q46 -30 52 -78.5t-24 -95.5q-52 -79 -144 -121q-5 -2 -9 -4z" />
<glyph unicode="&#x1edb;" horiz-adv-x="1347" d="M1083 674q-26 217 -163.5 363.5t-315.5 146.5q-201 0 -323 -176q-111 -158 -111 -367q0 -219 133 -395q143 -193 359 -193q198 0 319 166q109 150 109 356q0 50 -7 99zM449 1356.5q13 16.5 18 22.5l96 182q16 31 55 37l184 27l-2 -2q0 2 -26 -25q-113 -133 -170 -205 q-29 -33 -49 -37q-84 -14 -119 -18q0 2 13 18.5zM941 1174q72 -42 135 -105q184 -186 184 -451q0 -262 -184.5 -449t-444.5 -187t-445.5 187t-185.5 449q0 265 184.5 451t446.5 186q151 0 276 -62q3 2 7 4q54 38 70 68q-42 9 -69 44q-51 63 -6 130q20 30 53 44 q56 22 104 -10q46 -30 52 -78.5t-24 -95.5q-52 -79 -144 -121q-5 -2 -9 -4z" />
<glyph unicode="&#x1edf;" horiz-adv-x="1347" d="M1083 674q-26 217 -163.5 363.5t-315.5 146.5q-201 0 -323 -176q-111 -158 -111 -367q0 -219 133 -395q143 -193 359 -193q198 0 319 166q109 150 109 356q0 50 -7 99zM838 1611q-1 -71 -55 -119q-44 -40 -109 -57l1 -39q0 -20 -18 -32t-87 -41q12 36 12 74v59 q77 8 115 53q34 40 34 91q0 26 -11 47q-32 62 -102 62q-47 0 -83 -29q-37 -30 -37 -88q-32 9 -30 23q7 74 65 117q52 38 123 38q74 0 125 -40q58 -45 57 -119zM941 1174q72 -42 135 -105q184 -186 184 -451q0 -262 -184.5 -449t-444.5 -187t-445.5 187t-185.5 449 q0 265 184.5 451t446.5 186q151 0 276 -62q3 2 7 4q54 38 70 68q-42 9 -69 44q-51 63 -6 130q20 30 53 44q56 22 104 -10q46 -30 52 -78.5t-24 -95.5q-52 -79 -144 -121q-5 -2 -9 -4z" />
<glyph unicode="&#x1ee1;" horiz-adv-x="1347" d="M1083 674q-26 217 -163.5 363.5t-315.5 146.5q-201 0 -323 -176q-111 -158 -111 -367q0 -219 133 -395q143 -193 359 -193q198 0 319 166q109 150 109 356q0 50 -7 99zM973 1605q-68 -166 -178 -166q-16 0 -31 4l-237 56q-39 8 -72 8q-86 0 -119 -62q-2 -2 -2 0 q35 99 102 148q56 39 105 29l266 -58q33 -6 62 -6q71 0 102 47h2zM941 1174q72 -42 135 -105q184 -186 184 -451q0 -262 -184.5 -449t-444.5 -187t-445.5 187t-185.5 449q0 265 184.5 451t446.5 186q151 0 276 -62q3 2 7 4q54 38 70 68q-42 9 -69 44q-51 63 -6 130 q20 30 53 44q56 22 104 -10q46 -30 52 -78.5t-24 -95.5q-52 -79 -144 -121q-5 -2 -9 -4z" />
<glyph unicode="&#x1ee3;" horiz-adv-x="1347" d="M1083 674q-26 217 -163.5 363.5t-315.5 146.5q-201 0 -323 -176q-111 -158 -111 -367q0 -219 133 -395q143 -193 359 -193q198 0 319 166q109 150 109 356q0 50 -7 99zM748 -231q0 -47 -36 -80.5t-83 -33.5t-82 33.5t-35 80.5q0 50 35 84.5t82 34.5t83 -34.5t36 -84.5z M941 1174q72 -42 135 -105q184 -186 184 -451q0 -262 -184.5 -449t-444.5 -187t-445.5 187t-185.5 449q0 265 184.5 451t446.5 186q151 0 276 -62q3 2 7 4q54 38 70 68q-42 9 -69 44q-51 63 -6 130q20 30 53 44q56 22 104 -10q46 -30 52 -78.5t-24 -95.5q-52 -79 -144 -121 q-5 -2 -9 -4z" />
<glyph unicode="&#x1ef3;" horiz-adv-x="1302" d="M1307 1235q-78 -23 -185 -166l-397 -541q2 -174 8 -348q4 -155 129 -180l-2 -2q-207 8 -409 0q-7 0 -7 2q127 25 134 180q4 146 6 346l-398 543q-106 143 -186 166v0q209 -8 410 0h4q-68 -16 -68 -78q0 -41 29 -88l321 -428l308 428q34 45 34 86q0 64 -71 80h2 q164 -6 336 0h2zM763 1338q-34 4 -118 18q-21 4 -49 37q-58 72 -170 205q-27 27 -27 25l-2 2l184 -27q39 -6 55 -37l97 -182q4 -6 17 -22.5t13 -18.5z" />
<glyph unicode="&#xfd;" horiz-adv-x="1302" d="M1307 1235q-78 -23 -185 -166l-397 -541q2 -174 8 -348q4 -155 129 -180l-2 -2q-207 8 -409 0q-7 0 -7 2q127 25 134 180q4 146 6 346l-398 543q-106 143 -186 166v0q209 -8 410 0h4q-68 -16 -68 -78q0 -41 29 -88l321 -428l308 428q34 45 34 86q0 64 -71 80h2 q164 -6 336 0h2zM582 1356.5q13 16.5 18 22.5l96 182q16 31 55 37l184 27l-2 -2q0 2 -26 -25q-113 -133 -170 -205q-29 -33 -49 -37q-84 -14 -119 -18q0 2 13 18.5z" />
<glyph unicode="&#x1ef7;" horiz-adv-x="1302" d="M1307 1235q-78 -23 -185 -166l-397 -541q2 -174 8 -348q4 -155 129 -180l-2 -2q-207 8 -409 0q-7 0 -7 2q127 25 134 180q4 146 6 346l-398 543q-106 143 -186 166v0q209 -8 410 0h4q-68 -16 -68 -78q0 -41 29 -88l321 -428l308 428q34 45 34 86q0 64 -71 80h2 q164 -6 336 0h2zM895 1611q-1 -71 -55 -119q-44 -40 -109 -57l1 -39q0 -20 -18 -32t-87 -41q12 36 12 74v59q77 8 115 53q34 40 34 91q0 26 -11 47q-32 62 -102 62q-47 0 -83 -29q-37 -30 -37 -88q-32 9 -30 23q7 74 65 117q52 38 123 38q74 0 125 -40q58 -45 57 -119z" />
<glyph unicode="&#x1ef9;" horiz-adv-x="1302" d="M1307 1235q-78 -23 -185 -166l-397 -541q2 -174 8 -348q4 -155 129 -180l-2 -2q-207 8 -409 0q-7 0 -7 2q127 25 134 180q4 146 6 346l-398 543q-106 143 -186 166v0q209 -8 410 0h4q-68 -16 -68 -78q0 -41 29 -88l321 -428l308 428q34 45 34 86q0 64 -71 80h2 q164 -6 336 0h2zM1051 1529q-68 -166 -178 -166q-16 0 -31 4l-237 56q-39 8 -72 8q-86 0 -119 -62q-2 -2 -2 0q35 99 102 148q56 39 105 29l266 -58q33 -6 62 -6q71 0 102 47h2z" />
<glyph unicode="&#x1ef5;" horiz-adv-x="1302" d="M1307 1235q-78 -23 -185 -166l-397 -541q2 -174 8 -348q4 -155 129 -180l-2 -2q-207 8 -409 0q-7 0 -7 2q127 25 134 180q4 146 6 346l-398 543q-106 143 -186 166v0q209 -8 410 0h4q-68 -16 -68 -78q0 -41 29 -88l321 -428l308 428q34 45 34 86q0 64 -71 80h2 q164 -6 336 0h2zM776 -231q0 -47 -36 -80.5t-83 -33.5t-82 33.5t-35 80.5q0 50 35 84.5t82 34.5t83 -34.5t36 -84.5z" />
<glyph unicode="&#xf7;" horiz-adv-x="1706" />
<glyph horiz-adv-x="582" />
<glyph horiz-adv-x="580" />
<glyph horiz-adv-x="629" />
<glyph unicode="&#x10c;" horiz-adv-x="1274" />
<glyph unicode="&#x10d;" horiz-adv-x="1069" />
<glyph unicode="&#x110;" horiz-adv-x="1431" d="M1518 795q0 -326 -267 -570q-256 -235 -567 -225h-684q-10 0 -10 2q156 29 164 221q8 285 8 512h-176q-13 0 -23 -9l-10 -9v2l47 82q8 20 31 20h131q0 252 -8 533q-6 159 -154 188q0 2 2 2q-12 0 328 -2q438 0 420 2q327 -18 547.5 -228t220.5 -521zM1149 291 q160 198 160 467q0 207 -96 381q-101 182 -271 266q-127 63 -287 63q-116 0 -239 -32q-70 -19 -70 -45q-4 -338 -6 -570h203q12 0 31 21h2l-41 -84q-13 -23 -33 -23h-162v-495q0 -72 53 -99q121 -61 269 -61q145 0 277 56.5t210 154.5z" />
<glyph unicode="&#x111;" horiz-adv-x="1226" d="M268 645q-3 -357 -2 -455q0 -55 43 -77q97 -50 215 -50q115 0 221.5 45.5t168.5 122.5q127 160 127 373q0 166 -79 309.5t-214 210.5q-101 50 -230 50q-90 0 -190 -25q-55 -14 -55 -37q-2 -214 -4 -380h174q9 0 23 16h1l-37 -84q-5 -19 -24 -19h-138zM125 732 q-2 176 -8 349q-4 127 -123 154h600q262 -14 438 -182t176 -416q0 -262 -213 -457q-204 -188 -452 -182q-57 2 -549 2q-8 0 -8 2q125 23 131 176q8 235 8 467h-115q-11 0 -18 -7l-8 -8v1l41 84q8 17 24 17h76z" />
<glyph unicode="&#x2018;" horiz-adv-x="241" d="M217 1464q-35 -51 -94 -51q-55 0 -89 38t-34 95q-2 99 55 193q54 86 78 67q-16 -18 -39 -69q-24 -62 -20 -99q41 19 84 4q80 -26 80 -110q0 -37 -21 -68z" />
<glyph unicode="&#x2019;" horiz-adv-x="282" d="M240 1522q0 -99 -58 -193q-53 -86 -78 -67q19 18 39 69q27 62 21 99q-41 -17 -84 -5q-80 27 -80 111q0 37 23 68q34 51 94 51q55 0 89 -38t34 -95z" />
<glyph unicode="&#x201c;" horiz-adv-x="475" d="M451 1466q-35 -51 -97 -51q-90 0 -116 84q-33 -84 -115 -84q-55 0 -89 39t-34 96q-2 101 57 195q54 86 80 70q-18 -17 -41 -72q-26 -62 -20 -98q41 16 86 2q47 -15 69 -62q11 92 64 172q49 74 72 58q-19 -19 -39 -72q-27 -64 -21 -98q39 16 84 2q82 -27 82 -111 q0 -37 -22 -70z" />
<glyph unicode="&#x201d;" horiz-adv-x="530" d="M469 1522q2 -103 -57 -197q-54 -86 -80 -70q18 19 41 72q26 64 20 98q-41 -16 -86 -2q-47 15 -69 64q-11 -92 -63 -169t-73 -63q19 19 39 72q27 64 21 98q-41 -16 -84 -2q-82 27 -82 113q0 35 23 68q34 53 94 53q92 0 119 -86q32 86 112 86q58 0 91.5 -39t33.5 -96z" />
<glyph unicode="&#x2026;" horiz-adv-x="1083" d="M950 96q0 -47 -34.5 -81.5t-84.5 -34.5q-47 0 -81.5 33.5t-34.5 82.5q0 48 34.5 82.5t81.5 34.5q50 0 84.5 -34.5t34.5 -82.5zM596 96q0 -47 -36 -81.5t-83 -34.5v0q-49 0 -83 33.5t-34 82.5q0 48 34 82.5t83 34.5q47 0 83 -34.5t36 -82.5zM236 96q0 -47 -36 -81.5 t-83 -34.5v0q-49 0 -83 33.5t-34 82.5q0 48 34 82.5t83 34.5q47 0 83 -34.5t36 -82.5z" />
</font>
</defs>
</svg>
